<?xml version="1.0" encoding="UTF-8" standalone="no"?>
<!-- Created with Inkscape (http://www.inkscape.org/) -->

<svg
   xmlns:osb="http://www.openswatchbook.org/uri/2009/osb"
   xmlns:dc="http://purl.org/dc/elements/1.1/"
   xmlns:cc="http://creativecommons.org/ns#"
   xmlns:rdf="http://www.w3.org/1999/02/22-rdf-syntax-ns#"
   xmlns:svg="http://www.w3.org/2000/svg"
   xmlns="http://www.w3.org/2000/svg"
   xmlns:sodipodi="http://sodipodi.sourceforge.net/DTD/sodipodi-0.dtd"
   xmlns:inkscape="http://www.inkscape.org/namespaces/inkscape"
   width="300mm"
   height="200mm"
   viewBox="0 0 300.00001 200.00002"
   id="svg3397"
   version="1.1"
   inkscape:version="0.91 r13725"
   sodipodi:docname="graphicalModel.svg">
  <sodipodi:namedview
     inkscape:document-units="mm"
     pagecolor="#ffffff"
     bordercolor="#666666"
     borderopacity="1.0"
     inkscape:pageopacity="0.0"
     inkscape:pageshadow="2"
     inkscape:zoom="0.61399264"
     inkscape:cx="239.88624"
     inkscape:cy="415.19053"
     inkscape:current-layer="layer1"
     id="namedview3401"
     showgrid="true"
     inkscape:snap-text-baseline="false"
     inkscape:window-width="1918"
     inkscape:window-height="1179"
     inkscape:window-x="0"
     inkscape:window-y="0"
     inkscape:window-maximized="0"
     objecttolerance="10000"
     guidetolerance="10000"
     inkscape:snap-tangential="false"
     inkscape:snap-perpendicular="false"
     inkscape:object-paths="false"
     inkscape:snap-bbox="true"
     inkscape:bbox-paths="false"
     inkscape:bbox-nodes="true"
     inkscape:snap-bbox-edge-midpoints="false"
     inkscape:snap-bbox-midpoints="false"
     inkscape:snap-intersection-paths="false"
     inkscape:object-nodes="true"
     inkscape:snap-smooth-nodes="false"
     inkscape:snap-midpoints="false"
     inkscape:snap-object-midpoints="false"
     inkscape:snap-center="false"
     inkscape:snap-grids="true"
     inkscape:snap-to-guides="true"
     inkscape:snap-path-clip="false"
     inkscape:snap-path-mask="false"
     units="mm">
    <inkscape:grid
       type="xygrid"
       id="grid11330"
       snapvisiblegridlinesonly="true"
       units="cm"
       dotted="true"
       spacingx="10.000001"
       spacingy="10.000001"
       empspacing="1" />
  </sodipodi:namedview>
  <defs
     id="defs3399">
    <marker
       inkscape:stockid="Arrow1Lend"
       orient="auto"
       refY="0"
       refX="0"
       id="marker7252"
       style="overflow:visible"
       inkscape:isstock="true">
      <path
         id="path7254"
         d="M 0,0 5,-5 -12.5,0 5,5 0,0 Z"
         style="fill:#000000;fill-opacity:1;fill-rule:evenodd;stroke:#000000;stroke-width:1pt;stroke-opacity:1"
         transform="matrix(-0.8,0,0,-0.8,-10,0)"
         inkscape:connector-curvature="0" />
    </marker>
    <marker
       inkscape:stockid="Arrow1Lend"
       orient="auto"
       refY="0"
       refX="0"
       id="Arrow1Lend"
       style="overflow:visible"
       inkscape:isstock="true">
      <path
         id="path6985"
         d="M 0,0 5,-5 -12.5,0 5,5 0,0 Z"
         style="fill:#000000;fill-opacity:1;fill-rule:evenodd;stroke:#000000;stroke-width:1pt;stroke-opacity:1"
         transform="matrix(-0.8,0,0,-0.8,-10,0)"
         inkscape:connector-curvature="0" />
    </marker>
    <linearGradient
       id="linearGradient5652"
       osb:paint="solid">
      <stop
         style="stop-color:#000000;stop-opacity:1;"
         offset="0"
         id="stop5654" />
    </linearGradient>
    <marker
       inkscape:stockid="Arrow1Lend"
       orient="auto"
       refY="0"
       refX="0"
       id="marker7252-6"
       style="overflow:visible"
       inkscape:isstock="true">
      <path
         inkscape:connector-curvature="0"
         id="path7254-7"
         d="M 0,0 5,-5 -12.5,0 5,5 0,0 Z"
         style="fill:#000000;fill-opacity:1;fill-rule:evenodd;stroke:#000000;stroke-width:1pt;stroke-opacity:1"
         transform="matrix(-0.8,0,0,-0.8,-10,0)" />
    </marker>
    <marker
       inkscape:stockid="Arrow1Lend"
       orient="auto"
       refY="0"
       refX="0"
       id="marker7252-0"
       style="overflow:visible"
       inkscape:isstock="true">
      <path
         inkscape:connector-curvature="0"
         id="path7254-9"
         d="M 0,0 5,-5 -12.5,0 5,5 0,0 Z"
         style="fill:#000000;fill-opacity:1;fill-rule:evenodd;stroke:#000000;stroke-width:1pt;stroke-opacity:1"
         transform="matrix(-0.8,0,0,-0.8,-10,0)" />
    </marker>
    <marker
       inkscape:stockid="Arrow1Lend"
       orient="auto"
       refY="0"
       refX="0"
       id="marker7252-5"
       style="overflow:visible"
       inkscape:isstock="true">
      <path
         inkscape:connector-curvature="0"
         id="path7254-97"
         d="M 0,0 5,-5 -12.5,0 5,5 0,0 Z"
         style="fill:#000000;fill-opacity:1;fill-rule:evenodd;stroke:#000000;stroke-width:1pt;stroke-opacity:1"
         transform="matrix(-0.8,0,0,-0.8,-10,0)" />
    </marker>
    <marker
       inkscape:stockid="Arrow1Lend"
       orient="auto"
       refY="0"
       refX="0"
       id="marker7252-5-5"
       style="overflow:visible"
       inkscape:isstock="true">
      <path
         inkscape:connector-curvature="0"
         id="path7254-97-3"
         d="M 0,0 5,-5 -12.5,0 5,5 0,0 Z"
         style="fill:#000000;fill-opacity:1;fill-rule:evenodd;stroke:#000000;stroke-width:1pt;stroke-opacity:1"
         transform="matrix(-0.8,0,0,-0.8,-10,0)" />
    </marker>
    <marker
       inkscape:stockid="Arrow1Lend"
       orient="auto"
       refY="0"
       refX="0"
       id="marker7252-5-8"
       style="overflow:visible"
       inkscape:isstock="true">
      <path
         inkscape:connector-curvature="0"
         id="path7254-97-37"
         d="M 0,0 5,-5 -12.5,0 5,5 0,0 Z"
         style="fill:#000000;fill-opacity:1;fill-rule:evenodd;stroke:#000000;stroke-width:1pt;stroke-opacity:1"
         transform="matrix(-0.8,0,0,-0.8,-10,0)" />
    </marker>
    <marker
       inkscape:stockid="Arrow1Lend"
       orient="auto"
       refY="0"
       refX="0"
       id="marker7252-7"
       style="overflow:visible"
       inkscape:isstock="true">
      <path
         id="path7254-77"
         d="M 0,0 5,-5 -12.5,0 5,5 0,0 Z"
         style="fill:#000000;fill-opacity:1;fill-rule:evenodd;stroke:#000000;stroke-width:1pt;stroke-opacity:1"
         transform="matrix(-0.8,0,0,-0.8,-10,0)"
         inkscape:connector-curvature="0" />
    </marker>
    <marker
       inkscape:stockid="Arrow1Lend"
       orient="auto"
       refY="0"
       refX="0"
       id="marker7252-9"
       style="overflow:visible"
       inkscape:isstock="true">
      <path
         id="path7254-1"
         d="M 0,0 5,-5 -12.5,0 5,5 0,0 Z"
         style="fill:#000000;fill-opacity:1;fill-rule:evenodd;stroke:#000000;stroke-width:1pt;stroke-opacity:1"
         transform="matrix(-0.8,0,0,-0.8,-10,0)"
         inkscape:connector-curvature="0" />
    </marker>
    <marker
       inkscape:stockid="Arrow1Lend"
       orient="auto"
       refY="0"
       refX="0"
       id="marker7252-90"
       style="overflow:visible"
       inkscape:isstock="true">
      <path
         id="path7254-8"
         d="M 0,0 5,-5 -12.5,0 5,5 0,0 Z"
         style="fill:#000000;fill-opacity:1;fill-rule:evenodd;stroke:#000000;stroke-width:1pt;stroke-opacity:1"
         transform="matrix(-0.8,0,0,-0.8,-10,0)"
         inkscape:connector-curvature="0" />
    </marker>
    <marker
       inkscape:stockid="Arrow1Lend"
       orient="auto"
       refY="0"
       refX="0"
       id="marker7252-8"
       style="overflow:visible"
       inkscape:isstock="true">
      <path
         id="path7254-80"
         d="M 0,0 5,-5 -12.5,0 5,5 0,0 Z"
         style="fill:#000000;fill-opacity:1;fill-rule:evenodd;stroke:#000000;stroke-width:1pt;stroke-opacity:1"
         transform="matrix(-0.8,0,0,-0.8,-10,0)"
         inkscape:connector-curvature="0" />
    </marker>
    <marker
       inkscape:stockid="Arrow1Lend"
       orient="auto"
       refY="0"
       refX="0"
       id="marker7252-70"
       style="overflow:visible"
       inkscape:isstock="true">
      <path
         id="path7254-6"
         d="M 0,0 5,-5 -12.5,0 5,5 0,0 Z"
         style="fill:#000000;fill-opacity:1;fill-rule:evenodd;stroke:#000000;stroke-width:1pt;stroke-opacity:1"
         transform="matrix(-0.8,0,0,-0.8,-10,0)"
         inkscape:connector-curvature="0" />
    </marker>
    <marker
       inkscape:stockid="Arrow1Lend"
       orient="auto"
       refY="0"
       refX="0"
       id="marker7252-90-8"
       style="overflow:visible"
       inkscape:isstock="true">
      <path
         id="path7254-8-6"
         d="M 0,0 5,-5 -12.5,0 5,5 0,0 Z"
         style="fill:#ff0000;fill-opacity:1;fill-rule:evenodd;stroke:#ff0000;stroke-width:1pt;stroke-opacity:1"
         transform="matrix(-0.8,0,0,-0.8,-10,0)"
         inkscape:connector-curvature="0" />
    </marker>
  </defs>
  <metadata
     id="metadata3403">
    <rdf:RDF>
      <cc:Work
         rdf:about="">
        <dc:format>image/svg+xml</dc:format>
        <dc:type
           rdf:resource="http://purl.org/dc/dcmitype/StillImage" />
        <dc:title></dc:title>
      </cc:Work>
    </rdf:RDF>
  </metadata>
  <g
     inkscape:label="Layer 1"
     inkscape:groupmode="layer"
     id="layer1"
     transform="translate(0,-9.9999875)">
    <rect
       style="opacity:0.60159362;fill:#aaaadd;fill-opacity:0.26666667;stroke:none;stroke-width:0.5;stroke-linecap:butt;stroke-miterlimit:4;stroke-dasharray:none;stroke-opacity:1"
       id="rect17320"
       width="83.13018"
       height="37.275089"
       x="-123.13018"
       y="-20.000021" />
    <rect
       style="opacity:0.60159362;fill:#0000ff;fill-opacity:0.26666667;stroke:none;stroke-width:0.52162069;stroke-linecap:butt;stroke-miterlimit:4;stroke-dasharray:none;stroke-opacity:1"
       id="rect17322"
       width="79.989212"
       height="39.989189"
       x="-209.98923"
       y="30.010799" />
    <ellipse
       style="opacity:0.60159362;fill:#55aaff;fill-opacity:0.93333333;stroke:#000000;stroke-width:0.57315224;stroke-linecap:butt;stroke-miterlimit:4;stroke-dasharray:none;stroke-opacity:1"
       id="path12846"
       cx="95.125015"
       cy="-70.125023"
       rx="24.838432"
       ry="19.838423" />
    <rect
       style="opacity:0.60159362;fill:#44ffaa;fill-opacity:0.26666667;stroke:#000000;stroke-width:0.5;stroke-linecap:butt;stroke-miterlimit:4;stroke-dasharray:none;stroke-opacity:1"
       id="rect12834"
       width="70.000008"
       height="30.000004"
       x="-40.250004"
       y="-69.750023" />
    <text
       xml:space="preserve"
       style="font-style:normal;font-weight:normal;font-size:11.28888893px;line-height:125%;font-family:sans-serif;letter-spacing:0px;word-spacing:0px;fill:#000000;fill-opacity:1;stroke:none;stroke-width:1px;stroke-linecap:butt;stroke-linejoin:miter;stroke-opacity:1"
       x="40.449272"
       y="44.985355"
       id="text5887"
       sodipodi:linespacing="125%"><tspan
         sodipodi:role="line"
         id="tspan5889"
         x="40.449272"
         y="44.985355" /></text>
    <flowRoot
       style="font-style:normal;font-weight:normal;font-size:40px;line-height:125%;font-family:sans-serif;letter-spacing:0px;word-spacing:0px;fill:#000000;fill-opacity:1;stroke:none;stroke-width:1px;stroke-linecap:butt;stroke-linejoin:miter;stroke-opacity:1"
       id="flowRoot5972"
       xml:space="preserve"><flowRegion
         id="flowRegion5974"><rect
           y="273.40482"
           x="304.5639"
           height="61.889992"
           width="236.15918"
           id="rect5976" /></flowRegion><flowPara
         id="flowPara5978" /></flowRoot>    <path
       style="fill:none;fill-rule:evenodd;stroke:#000000;stroke-width:0.50000006;stroke-linecap:butt;stroke-linejoin:miter;stroke-miterlimit:4;stroke-dasharray:none;stroke-opacity:1;marker-end:url(#marker7252-90)"
       d="M 159.13669,-59.712254 189.1367,-69.712255"
       id="path12850-9"
       inkscape:connector-curvature="0"
       sodipodi:nodetypes="cc" />
    <text
       xml:space="preserve"
       style="font-style:normal;font-weight:normal;font-size:11.28888988px;line-height:125%;font-family:sans-serif;letter-spacing:0px;word-spacing:0px;fill:#000000;fill-opacity:1;stroke:none;stroke-width:1px;stroke-linecap:butt;stroke-linejoin:miter;stroke-opacity:1"
       x="110.00001"
       y="29.999989"
       id="text17324"
       sodipodi:linespacing="125%"><tspan
         sodipodi:role="line"
         id="tspan17326"
         x="110.00001"
         y="29.999989" /></text>
    <text
       xml:space="preserve"
       style="font-style:normal;font-weight:normal;font-size:11.28888988px;line-height:125%;font-family:sans-serif;letter-spacing:0px;word-spacing:0px;fill:#000000;fill-opacity:1;stroke:none;stroke-width:1px;stroke-linecap:butt;stroke-linejoin:miter;stroke-opacity:1"
       x="130.00002"
       y="110"
       id="text17332"
       sodipodi:linespacing="125%"><tspan
         sodipodi:role="line"
         id="tspan17334"
         x="130.00002"
         y="110" /></text>
    <ellipse
       style="opacity:1;fill:none;fill-opacity:0.93333333;stroke:#ff0000;stroke-width:3.12203026;stroke-linecap:butt;stroke-miterlimit:4;stroke-dasharray:none;stroke-opacity:1"
       id="path12846-2"
       cx="249.07112"
       cy="114.99999"
       rx="39.367889"
       ry="43.438992" />
    <ellipse
       style="opacity:1;fill:#0000ee;fill-opacity:0.13333333;stroke:#ff0000;stroke-width:3.12203026;stroke-linecap:butt;stroke-miterlimit:4;stroke-dasharray:none;stroke-opacity:1"
       id="path12846-2-7"
       cx="50.928905"
       cy="114.99999"
       rx="39.367889"
       ry="43.438992" />
    <g
       id="g18855"
       transform="matrix(4.0746828,0,0,4.4986102,-297.59988,-354.29093)">
      <g
         id="content"
         transform="matrix(0.28571429,0,0,-0.28571429,-50,225)"
         xml:space="preserve"
         stroke-miterlimit="10.433"
         font-style="normal"
         font-variant="normal"
         font-weight="normal"
         font-stretch="normal"
         font-size-adjust="none"
         letter-spacing="normal"
         word-spacing="normal"
         style="font-style:normal;font-variant:normal;font-weight:normal;font-stretch:normal;letter-spacing:normal;word-spacing:normal;text-anchor:start;fill:none;fill-opacity:1;fill-rule:evenodd;stroke:#000000;stroke-linecap:butt;stroke-linejoin:miter;stroke-miterlimit:10.43299961;stroke-dasharray:none;stroke-dashoffset:0;stroke-opacity:1"><path
           d="m 491.87,438.83 0.01,0.04 0.01,0.03 0.01,0.04 0.01,0.05 0.01,0.04 0.01,0.04 0.02,0.05 0.01,0.04 0.01,0.05 0.01,0.05 0.01,0.05 0.01,0.05 0.01,0.05 0,0.03 0,0.02 0,0.03 0,0.03 0.01,0.03 0,0.02 c 0,0.45 -0.25,0.45 -1.25,0.45 l -21.02,0 c -1.2,0 -1.25,-0.05 -1.55,-0.99 l -2.74,-8.97 c -0.1,-0.25 -0.14,-0.6 -0.14,-0.7 0,-0.05 0,-0.55 0.59,-0.55 0.45,0 0.55,0.35 0.65,0.5 1.89,5.88 4.48,9.17 12.25,9.17 l 8.12,0 -27.84,-31.14 c 0,-0.04 -0.2,-0.74 -0.2,-0.89 0,-0.45 0.35,-0.45 1.24,-0.45 l 21.67,0 c 1.2,0 1.25,0.05 1.55,1 l 3.53,11 c 0.05,0.2 0.2,0.55 0.2,0.75 0,0.25 -0.2,0.55 -0.64,0.55 -0.45,0 -0.5,-0.2 -0.85,-1.25 -2.19,-6.77 -4.58,-10.35 -13.05,-10.35 l -8.52,0 z"
           id="path18858"
           inkscape:connector-curvature="0"
           style="fill:#000000;stroke-width:0" /></g>    </g>
    <g
       id="g18962"
       transform="matrix(3.3787941,0,0,4.4356296,-42.575468,-347.42606)">
      <g
         word-spacing="normal"
         letter-spacing="normal"
         font-size-adjust="none"
         font-stretch="normal"
         font-weight="normal"
         font-variant="normal"
         font-style="normal"
         stroke-miterlimit="10.433"
         xml:space="preserve"
         transform="matrix(0.28571429,0,0,-0.28571429,-50,225)"
         id="g18964"
         style="font-style:normal;font-variant:normal;font-weight:normal;font-stretch:normal;letter-spacing:normal;word-spacing:normal;text-anchor:start;fill:none;fill-opacity:1;fill-rule:evenodd;stroke:#000000;stroke-linecap:butt;stroke-linejoin:miter;stroke-miterlimit:10.43299961;stroke-dasharray:none;stroke-dashoffset:0;stroke-opacity:1"><path
           id="path18966"
           d="m 480.16,426.47 -4.18,9.92 c -0.16,0.4 -0.25,0.59 -0.25,0.65 0,0.29 0.84,1.24 2.93,1.44 0.5,0.05 1,0.1 1,0.95 0,0.59 -0.6,0.59 -0.75,0.59 l -11.85,0 c -0.3,0 -0.9,0 -0.9,-0.99 0,-0.55 0.5,-0.55 1.15,-0.55 2.99,0 3.28,-0.5 3.73,-1.6 l 5.88,-13.9 -10.51,-11.3 -0.65,-0.55 c -2.44,-2.64 -4.78,-3.43 -7.32,-3.59 -0.65,-0.04 -1.1,-0.04 -1.1,-0.99 0,-0.05 0,-0.55 0.65,-0.55 l 10.26,0 c 0.3,0 0.9,0 0.9,1 0,0.5 -0.5,0.54 -0.6,0.54 -0.44,0.05 -1.99,0.16 -1.99,1.55 0,0.8 0.75,1.59 1.35,2.24 l 5.07,5.38 4.49,4.88 5.03,-11.9 c 0.2,-0.55 0.25,-0.6 0.25,-0.7 0,-0.4 -0.95,-1.25 -2.89,-1.45 -0.55,-0.04 -1,-0.09 -1,-0.94 0,-0.6 0.55,-0.6 0.75,-0.6 l 11.81,0 c 0.35,0 0.94,0 0.94,0.95 0,0.59 -0.49,0.59 -0.89,0.59 -3.34,0.05 -3.44,0.2 -4.29,2.19 -1.94,4.64 -5.28,12.41 -6.42,15.4 3.38,3.48 8.62,9.41 10.21,10.81 1.44,1.19 3.33,2.39 6.33,2.54 0.64,0.05 1.09,0.05 1.09,0.99 0,0.05 0,0.55 -0.65,0.55 l -10.21,0 c -0.3,0 -0.94,0 -0.94,-0.99 0,-0.35 0.25,-0.5 0.59,-0.55 0.45,-0.05 2,-0.15 2,-1.55 0,-0.69 -0.55,-1.34 -0.95,-1.79 z"
           inkscape:connector-curvature="0"
           style="fill:#000000;stroke-width:0" /></g>    </g>
    <path
       style="fill:none;fill-rule:evenodd;stroke:#ff0000;stroke-width:1.45694745;stroke-linecap:butt;stroke-linejoin:miter;stroke-miterlimit:4;stroke-dasharray:none;stroke-opacity:1;marker-end:url(#marker7252-90-8)"
       d="m 91.287491,114.8065 118.885309,0"
       id="path12850-9-3"
       inkscape:connector-curvature="0"
       sodipodi:nodetypes="cc" />
    <ellipse
       style="opacity:1;fill:#0000ee;fill-opacity:0.13333333;stroke:#ff0000;stroke-width:1.00000012;stroke-linecap:butt;stroke-miterlimit:4;stroke-dasharray:none;stroke-opacity:1"
       id="path12846-2-7-7"
       cx="-130.3685"
       cy="130.0885"
       rx="19.868504"
       ry="19.868498" />
    <ellipse
       style="opacity:1;fill:none;fill-opacity:0.93333333;stroke:#ff0000;stroke-width:1.00000012;stroke-linecap:butt;stroke-miterlimit:4;stroke-dasharray:none;stroke-opacity:1"
       id="path12846-2-72"
       cx="-130.3685"
       cy="190.08852"
       rx="19.868504"
       ry="19.868498" />
  </g>
</svg>
