<?xml version="1.0" encoding="UTF-8" standalone="no"?>
<!-- Created with Inkscape (http://www.inkscape.org/) -->

<svg
   xmlns:osb="http://www.openswatchbook.org/uri/2009/osb"
   xmlns:dc="http://purl.org/dc/elements/1.1/"
   xmlns:cc="http://creativecommons.org/ns#"
   xmlns:rdf="http://www.w3.org/1999/02/22-rdf-syntax-ns#"
   xmlns:svg="http://www.w3.org/2000/svg"
   xmlns="http://www.w3.org/2000/svg"
   xmlns:sodipodi="http://sodipodi.sourceforge.net/DTD/sodipodi-0.dtd"
   xmlns:inkscape="http://www.inkscape.org/namespaces/inkscape"
   width="300mm"
   height="130mm"
   viewBox="0 0 300.00001 130.00002"
   id="svg3397"
   version="1.1"
   inkscape:version="0.91 r13725"
   sodipodi:docname="VAEcomponents.svg">
  <sodipodi:namedview
     inkscape:document-units="mm"
     pagecolor="#ffffff"
     bordercolor="#666666"
     borderopacity="1.0"
     inkscape:pageopacity="0.0"
     inkscape:pageshadow="2"
     inkscape:zoom="0.61399264"
     inkscape:cx="260.05334"
     inkscape:cy="221.06676"
     inkscape:current-layer="layer1"
     id="namedview3401"
     showgrid="true"
     inkscape:snap-text-baseline="false"
     inkscape:window-width="1918"
     inkscape:window-height="1042"
     inkscape:window-x="0"
     inkscape:window-y="18"
     inkscape:window-maximized="0"
     objecttolerance="10000"
     guidetolerance="10000"
     inkscape:snap-tangential="false"
     inkscape:snap-perpendicular="false"
     inkscape:object-paths="false"
     inkscape:snap-bbox="true"
     inkscape:bbox-paths="false"
     inkscape:bbox-nodes="true"
     inkscape:snap-bbox-edge-midpoints="false"
     inkscape:snap-bbox-midpoints="false"
     inkscape:snap-intersection-paths="false"
     inkscape:object-nodes="false"
     inkscape:snap-smooth-nodes="false"
     inkscape:snap-midpoints="false"
     inkscape:snap-object-midpoints="false"
     inkscape:snap-center="false"
     inkscape:snap-grids="true"
     inkscape:snap-to-guides="true"
     inkscape:snap-path-clip="false"
     inkscape:snap-path-mask="false"
     units="mm">
    <inkscape:grid
       type="xygrid"
       id="grid11330"
       snapvisiblegridlinesonly="true"
       units="cm"
       dotted="true"
       spacingx="10.000001"
       spacingy="10.000001"
       empspacing="1" />
  </sodipodi:namedview>
  <defs
     id="defs3399">
    <marker
       inkscape:stockid="Arrow1Lend"
       orient="auto"
       refY="0"
       refX="0"
       id="marker7252"
       style="overflow:visible"
       inkscape:isstock="true">
      <path
         id="path7254"
         d="M 0,0 5,-5 -12.5,0 5,5 0,0 Z"
         style="fill:#000000;fill-opacity:1;fill-rule:evenodd;stroke:#000000;stroke-width:1pt;stroke-opacity:1"
         transform="matrix(-0.8,0,0,-0.8,-10,0)"
         inkscape:connector-curvature="0" />
    </marker>
    <marker
       inkscape:stockid="Arrow1Lend"
       orient="auto"
       refY="0"
       refX="0"
       id="Arrow1Lend"
       style="overflow:visible"
       inkscape:isstock="true">
      <path
         id="path6985"
         d="M 0,0 5,-5 -12.5,0 5,5 0,0 Z"
         style="fill:#000000;fill-opacity:1;fill-rule:evenodd;stroke:#000000;stroke-width:1pt;stroke-opacity:1"
         transform="matrix(-0.8,0,0,-0.8,-10,0)"
         inkscape:connector-curvature="0" />
    </marker>
    <linearGradient
       id="linearGradient5652"
       osb:paint="solid">
      <stop
         style="stop-color:#000000;stop-opacity:1;"
         offset="0"
         id="stop5654" />
    </linearGradient>
    <marker
       inkscape:stockid="Arrow1Lend"
       orient="auto"
       refY="0"
       refX="0"
       id="marker7252-6"
       style="overflow:visible"
       inkscape:isstock="true">
      <path
         inkscape:connector-curvature="0"
         id="path7254-7"
         d="M 0,0 5,-5 -12.5,0 5,5 0,0 Z"
         style="fill:#000000;fill-opacity:1;fill-rule:evenodd;stroke:#000000;stroke-width:1pt;stroke-opacity:1"
         transform="matrix(-0.8,0,0,-0.8,-10,0)" />
    </marker>
    <marker
       inkscape:stockid="Arrow1Lend"
       orient="auto"
       refY="0"
       refX="0"
       id="marker7252-0"
       style="overflow:visible"
       inkscape:isstock="true">
      <path
         inkscape:connector-curvature="0"
         id="path7254-9"
         d="M 0,0 5,-5 -12.5,0 5,5 0,0 Z"
         style="fill:#000000;fill-opacity:1;fill-rule:evenodd;stroke:#000000;stroke-width:1pt;stroke-opacity:1"
         transform="matrix(-0.8,0,0,-0.8,-10,0)" />
    </marker>
    <marker
       inkscape:stockid="Arrow1Lend"
       orient="auto"
       refY="0"
       refX="0"
       id="marker7252-5"
       style="overflow:visible"
       inkscape:isstock="true">
      <path
         inkscape:connector-curvature="0"
         id="path7254-97"
         d="M 0,0 5,-5 -12.5,0 5,5 0,0 Z"
         style="fill:#000000;fill-opacity:1;fill-rule:evenodd;stroke:#000000;stroke-width:1pt;stroke-opacity:1"
         transform="matrix(-0.8,0,0,-0.8,-10,0)" />
    </marker>
    <marker
       inkscape:stockid="Arrow1Lend"
       orient="auto"
       refY="0"
       refX="0"
       id="marker7252-5-5"
       style="overflow:visible"
       inkscape:isstock="true">
      <path
         inkscape:connector-curvature="0"
         id="path7254-97-3"
         d="M 0,0 5,-5 -12.5,0 5,5 0,0 Z"
         style="fill:#000000;fill-opacity:1;fill-rule:evenodd;stroke:#000000;stroke-width:1pt;stroke-opacity:1"
         transform="matrix(-0.8,0,0,-0.8,-10,0)" />
    </marker>
    <marker
       inkscape:stockid="Arrow1Lend"
       orient="auto"
       refY="0"
       refX="0"
       id="marker7252-5-8"
       style="overflow:visible"
       inkscape:isstock="true">
      <path
         inkscape:connector-curvature="0"
         id="path7254-97-37"
         d="M 0,0 5,-5 -12.5,0 5,5 0,0 Z"
         style="fill:#000000;fill-opacity:1;fill-rule:evenodd;stroke:#000000;stroke-width:1pt;stroke-opacity:1"
         transform="matrix(-0.8,0,0,-0.8,-10,0)" />
    </marker>
    <marker
       inkscape:stockid="Arrow1Lend"
       orient="auto"
       refY="0"
       refX="0"
       id="marker7252-7"
       style="overflow:visible"
       inkscape:isstock="true">
      <path
         id="path7254-77"
         d="M 0,0 5,-5 -12.5,0 5,5 0,0 Z"
         style="fill:#000000;fill-opacity:1;fill-rule:evenodd;stroke:#000000;stroke-width:1pt;stroke-opacity:1"
         transform="matrix(-0.8,0,0,-0.8,-10,0)"
         inkscape:connector-curvature="0" />
    </marker>
    <marker
       inkscape:stockid="Arrow1Lend"
       orient="auto"
       refY="0"
       refX="0"
       id="marker7252-9"
       style="overflow:visible"
       inkscape:isstock="true">
      <path
         id="path7254-1"
         d="M 0,0 5,-5 -12.5,0 5,5 0,0 Z"
         style="fill:#000000;fill-opacity:1;fill-rule:evenodd;stroke:#000000;stroke-width:1pt;stroke-opacity:1"
         transform="matrix(-0.8,0,0,-0.8,-10,0)"
         inkscape:connector-curvature="0" />
    </marker>
    <marker
       inkscape:stockid="Arrow1Lend"
       orient="auto"
       refY="0"
       refX="0"
       id="marker7252-90"
       style="overflow:visible"
       inkscape:isstock="true">
      <path
         id="path7254-8"
         d="M 0,0 5,-5 -12.5,0 5,5 0,0 Z"
         style="fill:#000000;fill-opacity:1;fill-rule:evenodd;stroke:#000000;stroke-width:1pt;stroke-opacity:1"
         transform="matrix(-0.8,0,0,-0.8,-10,0)"
         inkscape:connector-curvature="0" />
    </marker>
    <marker
       inkscape:stockid="Arrow1Lend"
       orient="auto"
       refY="0"
       refX="0"
       id="marker7252-8"
       style="overflow:visible"
       inkscape:isstock="true">
      <path
         id="path7254-80"
         d="M 0,0 5,-5 -12.5,0 5,5 0,0 Z"
         style="fill:#000000;fill-opacity:1;fill-rule:evenodd;stroke:#000000;stroke-width:1pt;stroke-opacity:1"
         transform="matrix(-0.8,0,0,-0.8,-10,0)"
         inkscape:connector-curvature="0" />
    </marker>
    <marker
       inkscape:stockid="Arrow1Lend"
       orient="auto"
       refY="0"
       refX="0"
       id="marker7252-70"
       style="overflow:visible"
       inkscape:isstock="true">
      <path
         id="path7254-6"
         d="M 0,0 5,-5 -12.5,0 5,5 0,0 Z"
         style="fill:#000000;fill-opacity:1;fill-rule:evenodd;stroke:#000000;stroke-width:1pt;stroke-opacity:1"
         transform="matrix(-0.8,0,0,-0.8,-10,0)"
         inkscape:connector-curvature="0" />
    </marker>
  </defs>
  <metadata
     id="metadata3403">
    <rdf:RDF>
      <cc:Work
         rdf:about="">
        <dc:format>image/svg+xml</dc:format>
        <dc:type
           rdf:resource="http://purl.org/dc/dcmitype/StillImage" />
        <dc:title />
      </cc:Work>
    </rdf:RDF>
  </metadata>
  <g
     inkscape:label="Layer 1"
     inkscape:groupmode="layer"
     id="layer1"
     transform="translate(0,-79.999993)">
    <rect
       style="opacity:0.60159362;fill:#aaaadd;fill-opacity:0.26666667;stroke:none;stroke-width:0.5;stroke-linecap:butt;stroke-miterlimit:4;stroke-dasharray:none;stroke-opacity:1"
       id="rect17320"
       width="270.00003"
       height="68.53833"
       x="-280.00003"
       y="89.999992" />
    <rect
       style="opacity:0.60159362;fill:#0000ff;fill-opacity:0.26666667;stroke:none;stroke-width:0.52162069;stroke-linecap:butt;stroke-miterlimit:4;stroke-dasharray:none;stroke-opacity:1"
       id="rect17322"
       width="269.98923"
       height="109.9892"
       x="-299.98923"
       y="-100.00003" />
    <rect
       style="opacity:0.60159362;fill:#44ffaa;fill-opacity:0.26666667;stroke:#000000;stroke-width:0.5;stroke-linecap:butt;stroke-miterlimit:4;stroke-dasharray:none;stroke-opacity:1"
       id="rect12842"
       width="70.000008"
       height="30.000004"
       x="10.250001"
       y="169.75" />
    <ellipse
       style="opacity:0.60159362;fill:#55aaff;fill-opacity:0.93333333;stroke:#000000;stroke-width:0.57315224;stroke-linecap:butt;stroke-miterlimit:4;stroke-dasharray:none;stroke-opacity:1"
       id="path12846"
       cx="135.12502"
       cy="120.12499"
       rx="24.838432"
       ry="19.838423" />
    <ellipse
       style="opacity:0.60159362;fill:#55aaff;fill-opacity:0.93333333;stroke:#000000;stroke-width:0.57315224;stroke-linecap:butt;stroke-miterlimit:4;stroke-dasharray:none;stroke-opacity:1"
       id="path12848"
       cx="135.12502"
       cy="179.875"
       rx="24.838432"
       ry="19.838425" />
    <rect
       style="opacity:0.60159362;fill:#44ffaa;fill-opacity:0.26666667;stroke:#000000;stroke-width:0.5;stroke-linecap:butt;stroke-miterlimit:4;stroke-dasharray:none;stroke-opacity:1"
       id="rect12834"
       width="70.000008"
       height="30.000004"
       x="9.749999"
       y="109.74999" />
    <rect
       style="opacity:0.60159362;fill:#44ffaa;fill-opacity:0.26666667;stroke:#000000;stroke-width:0.56611359;stroke-linecap:butt;stroke-miterlimit:4;stroke-dasharray:none;stroke-opacity:1"
       id="rect12836"
       width="89.933891"
       height="29.933889"
       x="189.78307"
       y="109.78305" />
    <rect
       style="opacity:0.60159362;fill:#44ffaa;fill-opacity:0.26666667;stroke:#000000;stroke-width:0.56455731;stroke-linecap:butt;stroke-miterlimit:4;stroke-dasharray:none;stroke-opacity:1"
       id="rect12838"
       width="89.435448"
       height="29.935446"
       x="190.28229"
       y="169.78227" />
    <text
       xml:space="preserve"
       style="font-style:normal;font-weight:normal;font-size:11.28888893px;line-height:125%;font-family:sans-serif;letter-spacing:0px;word-spacing:0px;fill:#000000;fill-opacity:1;stroke:none;stroke-width:1px;stroke-linecap:butt;stroke-linejoin:miter;stroke-opacity:1"
       x="40.449272"
       y="44.985355"
       id="text5887"
       sodipodi:linespacing="125%"><tspan
         sodipodi:role="line"
         id="tspan5889"
         x="40.449272"
         y="44.985355" /></text>
    <flowRoot
       style="font-style:normal;font-weight:normal;font-size:40px;line-height:125%;font-family:sans-serif;letter-spacing:0px;word-spacing:0px;fill:#000000;fill-opacity:1;stroke:none;stroke-width:1px;stroke-linecap:butt;stroke-linejoin:miter;stroke-opacity:1"
       id="flowRoot5972"
       xml:space="preserve"><flowRegion
         id="flowRegion5974"><rect
           y="273.40482"
           x="304.5639"
           height="61.889992"
           width="236.15918"
           id="rect5976" /></flowRegion><flowPara
         id="flowPara5978" /></flowRoot>    <path
       style="fill:none;fill-rule:evenodd;stroke:#000000;stroke-width:0.50000006;stroke-linecap:butt;stroke-linejoin:miter;stroke-miterlimit:4;stroke-dasharray:none;stroke-opacity:1;marker-end:url(#marker7252)"
       d="m 80.136729,180.2093 28.133371,0.27337"
       id="path12850"
       inkscape:connector-curvature="0"
       sodipodi:nodetypes="cc" />
    <path
       style="fill:none;fill-rule:evenodd;stroke:#000000;stroke-width:0.50000006;stroke-linecap:butt;stroke-linejoin:miter;stroke-miterlimit:4;stroke-dasharray:none;stroke-opacity:1;marker-end:url(#marker7252-9)"
       d="M 80.235023,119.86692 108.39642,119.7546"
       id="path12850-1"
       inkscape:connector-curvature="0"
       sodipodi:nodetypes="cc" />
    <path
       style="fill:none;fill-rule:evenodd;stroke:#000000;stroke-width:0.50000006;stroke-linecap:butt;stroke-linejoin:miter;stroke-miterlimit:4;stroke-dasharray:none;stroke-opacity:1;marker-end:url(#marker7252-90)"
       d="m 159.31572,120.21426 29.54036,0.57196"
       id="path12850-9"
       inkscape:connector-curvature="0"
       sodipodi:nodetypes="cc" />
    <path
       style="fill:none;fill-rule:evenodd;stroke:#000000;stroke-width:0.50000006;stroke-linecap:butt;stroke-linejoin:miter;stroke-miterlimit:4;stroke-dasharray:none;stroke-opacity:1;marker-end:url(#marker7252-8)"
       d="m 160.23502,180.79661 29.54036,-0.23502"
       id="path12850-3"
       inkscape:connector-curvature="0"
       sodipodi:nodetypes="cc" />
    <text
       xml:space="preserve"
       style="font-style:normal;font-weight:normal;font-size:11.28888988px;line-height:125%;font-family:sans-serif;letter-spacing:0px;word-spacing:0px;fill:#000000;fill-opacity:1;stroke:none;stroke-width:1px;stroke-linecap:butt;stroke-linejoin:miter;stroke-opacity:1"
       x="110.00001"
       y="29.999989"
       id="text17324"
       sodipodi:linespacing="125%"><tspan
         sodipodi:role="line"
         id="tspan17326"
         x="110.00001"
         y="29.999989" /></text>
    <text
       xml:space="preserve"
       style="font-style:normal;font-weight:normal;font-size:11.28888988px;line-height:125%;font-family:sans-serif;letter-spacing:0px;word-spacing:0px;fill:#000000;fill-opacity:1;stroke:none;stroke-width:1px;stroke-linecap:butt;stroke-linejoin:miter;stroke-opacity:1"
       x="130.00002"
       y="110"
       id="text17332"
       sodipodi:linespacing="125%"><tspan
         sodipodi:role="line"
         id="tspan17334"
         x="130.00002"
         y="110" /></text>
    <text
       xml:space="preserve"
       style="font-style:normal;font-weight:normal;font-size:11.28888988px;line-height:125%;font-family:sans-serif;letter-spacing:0px;word-spacing:0px;fill:#000000;fill-opacity:1;stroke:none;stroke-width:1px;stroke-linecap:butt;stroke-linejoin:miter;stroke-opacity:1"
       x="12.496269"
       y="159.84015"
       id="text17336"
       sodipodi:linespacing="125%"><tspan
         sodipodi:role="line"
         id="tspan17338"
         x="12.496269"
         y="159.84015">Decoder</tspan></text>
    <text
       xml:space="preserve"
       style="font-style:normal;font-weight:normal;font-size:11.28888988px;line-height:125%;font-family:sans-serif;letter-spacing:0px;word-spacing:0px;fill:#000000;fill-opacity:1;stroke:none;stroke-width:1px;stroke-linecap:butt;stroke-linejoin:miter;stroke-opacity:1"
       x="13.819183"
       y="99.840141"
       id="text17336-3"
       sodipodi:linespacing="125%"><tspan
         sodipodi:role="line"
         id="tspan17338-6"
         x="13.819183"
         y="99.840141">Encoder</tspan></text>
    <g
       id="g4324"
       transform="translate(32.22033,15.185075)">
      <g
         id="content"
         transform="matrix(0.28571429,0,0,-0.28571429,-50,225)"
         xml:space="preserve"
         stroke-miterlimit="10.433"
         font-style="normal"
         font-variant="normal"
         font-weight="normal"
         font-stretch="normal"
         font-size-adjust="none"
         letter-spacing="normal"
         word-spacing="normal"
         style="font-style:normal;font-variant:normal;font-weight:normal;font-stretch:normal;letter-spacing:normal;word-spacing:normal;text-anchor:start;fill:none;fill-opacity:1;fill-rule:evenodd;stroke:#000000;stroke-linecap:butt;stroke-linejoin:miter;stroke-miterlimit:10.43299961;stroke-dasharray:none;stroke-dashoffset:0;stroke-opacity:1"><path
           d="m 491.27,417.61 0.01,0.02 0.01,0.02 0.02,0.05 0.02,0.05 0.02,0.06 0.02,0.05 0.02,0.05 0.02,0.05 0.02,0.05 0.01,0.02 0.01,0.03 0.01,0.02 0,0.02 0.01,0.03 0.01,0.02 0.01,0.02 0,0.02 0.01,0.02 0,0.01 0.01,0.02 0,0.02 0,0.01 0,0.01 0.01,0.01 0,0.01 c 0,0.06 0,0.55 -0.6,0.55 -0.45,0 -0.55,-0.3 -0.65,-0.6 -3.23,-7.37 -5.08,-10.71 -13.6,-10.71 l -7.27,0 c -0.7,0 -0.8,0 -1.1,0.05 -0.5,0.05 -0.64,0.11 -0.64,0.5 0,0.15 0,0.25 0.25,1.15 l 3.38,13.6 4.93,0 c 4.24,0 4.24,-1.05 4.24,-2.29 0,-0.35 0,-0.95 -0.35,-2.44 -0.1,-0.25 -0.15,-0.4 -0.15,-0.56 0,-0.24 0.2,-0.54 0.65,-0.54 0.4,0 0.55,0.25 0.75,0.99 l 2.84,11.66 c 0,0.3 -0.25,0.55 -0.6,0.55 -0.45,0 -0.55,-0.3 -0.7,-0.9 -1.05,-3.78 -1.94,-4.93 -6.52,-4.93 l -4.69,0 2.99,12.01 c 0.45,1.74 0.5,1.94 2.69,1.94 l 7.02,0 c 6.08,0 7.57,-1.45 7.57,-5.53 0,-1.19 0,-1.3 -0.19,-2.64 0,-0.3 -0.06,-0.65 -0.06,-0.9 0,-0.25 0.16,-0.6 0.6,-0.6 0.55,0 0.6,0.3 0.7,1.25 l 1,8.62 c 0.15,1.34 -0.1,1.34 -1.35,1.34 l -25.15,0 c -1,0 -1.5,0 -1.5,-0.99 0,-0.55 0.45,-0.55 1.4,-0.55 1.84,0 3.23,0 3.23,-0.9 0,-0.2 0,-0.3 -0.25,-1.19 l -6.57,-26.35 c -0.5,-1.95 -0.6,-2.35 -4.53,-2.35 -0.85,0 -1.4,0 -1.4,-0.94 0,-0.6 0.45,-0.6 1.4,-0.6 l 25.85,0 c 1.15,0 1.2,0.05 1.54,0.85 z"
           id="path4327"
           inkscape:connector-curvature="0"
           style="fill:#000000;stroke-width:0" /><path
           d="m 499.38,408.94 -0.01,-0.07 -0.02,-0.08 -0.01,-0.07 -0.02,-0.08 -0.03,-0.16 -0.04,-0.16 -0.04,-0.16 -0.03,-0.16 -0.04,-0.16 -0.04,-0.16 -0.01,-0.08 -0.02,-0.07 -0.02,-0.07 -0.01,-0.07 -0.02,-0.07 -0.01,-0.07 -0.01,-0.06 -0.02,-0.06 -0.01,-0.05 -0.01,-0.06 -0.01,-0.05 0,-0.04 -0.01,-0.04 0,-0.04 -0.01,-0.03 0,-0.02 c 0,-0.9 0.7,-1.35 1.45,-1.35 0.6,0 1.5,0.4 1.84,1.4 0.05,0.1 0.65,2.44 0.95,3.68 l 1.1,4.49 c 0.29,1.09 0.59,2.19 0.84,3.34 0.2,0.84 0.6,2.28 0.65,2.48 0.75,1.55 3.39,6.08 8.12,6.08 2.24,0 2.69,-1.84 2.69,-3.49 0,-3.08 -2.44,-9.46 -3.24,-11.6 -0.45,-1.15 -0.5,-1.74 -0.5,-2.29 0,-2.34 1.75,-4.09 4.09,-4.09 4.68,0 6.52,7.28 6.52,7.67 0,0.5 -0.44,0.5 -0.6,0.5 -0.49,0 -0.49,-0.15 -0.74,-0.89 -1,-3.39 -2.64,-6.18 -5.08,-6.18 -0.85,0 -1.2,0.5 -1.2,1.64 0,1.25 0.45,2.44 0.9,3.54 0.94,2.64 3.04,8.12 3.04,10.96 0,3.33 -2.15,5.33 -5.73,5.33 -4.48,0 -6.92,-3.19 -7.77,-4.34 -0.25,2.79 -2.3,4.34 -4.58,4.34 -2.3,0 -3.24,-1.95 -3.74,-2.84 -0.8,-1.7 -1.49,-4.63 -1.49,-4.83 0,-0.5 0.49,-0.5 0.59,-0.5 0.5,0 0.55,0.05 0.85,1.14 0.84,3.54 1.84,5.93 3.64,5.93 0.99,0 1.54,-0.65 1.54,-2.29 0,-1.04 -0.15,-1.59 -0.8,-4.18 z"
           id="path4329"
           inkscape:connector-curvature="0"
           style="fill:#000000;stroke-width:0" /><path
           d="m 544.73,424.93 -0.15,0 -0.15,0 -0.14,0 -0.14,-0.01 -0.14,-0.01 -0.14,-0.02 -0.07,-0.01 -0.07,-0.01 -0.07,-0.01 -0.07,-0.02 -0.06,-0.01 -0.07,-0.02 -0.07,-0.03 -0.07,-0.02 -0.06,-0.03 -0.07,-0.03 -0.07,-0.03 -0.06,-0.04 -0.07,-0.03 -0.06,-0.05 -0.07,-0.04 -0.06,-0.05 -0.07,-0.05 -0.06,-0.06 -0.07,-0.06 -0.07,-0.06 c -0.79,-0.75 -0.89,-1.59 -0.89,-1.94 0,-1.2 0.89,-1.74 1.84,-1.74 1.45,0 2.79,1.19 2.79,3.18 0,2.45 -2.34,4.29 -5.88,4.29 -6.72,0 -13.35,-7.13 -13.35,-14.15 0,-4.48 2.89,-8.42 8.07,-8.42 7.12,0 11.31,5.28 11.31,5.88 0,0.3 -0.3,0.65 -0.6,0.65 -0.25,0 -0.35,-0.1 -0.64,-0.5 -3.94,-4.93 -9.37,-4.93 -9.97,-4.93 -3.14,0 -4.48,2.44 -4.48,5.43 0,2.04 1,6.87 2.69,9.96 1.54,2.84 4.28,4.98 7.02,4.98 1.7,0 3.59,-0.65 4.29,-1.99 z"
           id="path4331"
           inkscape:connector-curvature="0"
           style="fill:#000000;stroke-width:0" /><path
           d="m 563.49,394.04 0,0.03 0,0.03 -0.01,0.01 0,0.02 0,0.01 -0.01,0.02 0,0.02 -0.01,0.01 -0.01,0.02 -0.01,0.02 -0.01,0.03 -0.01,0.02 -0.02,0.02 -0.02,0.03 -0.02,0.03 -0.02,0.03 -0.03,0.03 -0.03,0.04 -0.01,0.02 -0.02,0.02 -0.02,0.02 -0.02,0.02 -0.02,0.02 -0.02,0.03 -0.02,0.02 -0.02,0.02 -0.02,0.03 -0.03,0.02 -0.02,0.03 -0.03,0.03 -0.02,0.03 -0.03,0.03 -0.03,0.03 -0.03,0.03 -0.03,0.03 -0.03,0.03 -0.04,0.04 -0.03,0.03 -0.04,0.04 -0.03,0.03 -0.04,0.04 -0.04,0.04 c -6.23,6.28 -7.82,15.69 -7.82,23.31 0,8.67 1.9,17.34 8.02,23.57 0.65,0.59 0.65,0.69 0.65,0.84 0,0.35 -0.2,0.5 -0.5,0.5 -0.5,0 -4.98,-3.39 -7.92,-9.72 -2.54,-5.47 -3.14,-11 -3.14,-15.19 0,-3.88 0.55,-9.91 3.29,-15.54 2.99,-6.12 7.27,-9.36 7.77,-9.36 0.3,0 0.5,0.15 0.5,0.49 z"
           id="path4333"
           inkscape:connector-curvature="0"
           style="fill:#000000;stroke-width:0" /><path
           d="m 582.64,421.04 0.03,0.13 0.03,0.15 0.05,0.17 0.04,0.18 0.06,0.19 0.06,0.21 0.06,0.21 0.07,0.23 0.08,0.23 0.09,0.24 0.1,0.25 0.1,0.24 0.11,0.25 0.12,0.25 0.13,0.25 0.14,0.25 0.15,0.24 0.15,0.24 0.17,0.23 0.18,0.22 0.18,0.22 0.2,0.2 0.21,0.19 0.22,0.18 0.23,0.16 0.25,0.14 0.12,0.07 0.13,0.06 0.13,0.05 0.14,0.05 0.14,0.05 0.14,0.04 0.14,0.03 0.15,0.03 0.15,0.02 0.16,0.02 0.16,0.01 0.16,0 c 0.25,0 1.45,0 2.49,-0.65 -1.4,-0.25 -2.39,-1.49 -2.39,-2.68 0,-0.8 0.55,-1.75 1.89,-1.75 1.1,0 2.69,0.9 2.69,2.89 0,2.59 -2.94,3.29 -4.63,3.29 -2.89,0 -4.64,-2.64 -5.23,-3.79 -1.24,3.29 -3.94,3.79 -5.38,3.79 -5.18,0 -8.02,-6.43 -8.02,-7.67 0,-0.5 0.5,-0.5 0.6,-0.5 0.39,0 0.54,0.1 0.64,0.54 1.7,5.29 4.99,6.53 6.68,6.53 0.94,0 2.69,-0.45 2.69,-3.33 0,-1.55 -0.85,-4.89 -2.69,-11.86 -0.8,-3.09 -2.54,-5.18 -4.73,-5.18 -0.3,0 -1.45,0 -2.49,0.65 1.24,0.25 2.34,1.29 2.34,2.69 0,1.34 -1.1,1.74 -1.85,1.74 -1.49,0 -2.73,-1.3 -2.73,-2.89 0,-2.29 2.48,-3.29 4.68,-3.29 3.28,0 5.08,3.49 5.22,3.79 0.61,-1.85 2.4,-3.79 5.39,-3.79 5.13,0 7.97,6.43 7.97,7.67 0,0.5 -0.45,0.5 -0.6,0.5 -0.45,0 -0.55,-0.2 -0.65,-0.55 -1.64,-5.33 -5.03,-6.52 -6.62,-6.52 -1.94,0 -2.74,1.59 -2.74,3.29 0,1.09 0.3,2.19 0.85,4.38 z"
           id="path4335"
           inkscape:connector-curvature="0"
           style="fill:#000000;stroke-width:0" /><path
           d="m 608.4,418.45 -0.01,0.37 0,0.39 -0.01,0.39 -0.01,0.41 -0.04,0.84 -0.06,0.88 -0.09,0.92 -0.1,0.94 -0.14,0.98 -0.16,1 -0.2,1.02 -0.23,1.04 -0.27,1.05 -0.3,1.06 -0.35,1.06 -0.39,1.07 -0.22,0.53 -0.22,0.54 -0.24,0.53 -0.25,0.53 c -2.99,6.12 -7.27,9.36 -7.77,9.36 -0.3,0 -0.5,-0.2 -0.5,-0.5 0,-0.15 0,-0.25 0.94,-1.15 4.89,-4.92 7.73,-12.85 7.73,-23.26 0,-8.52 -1.85,-17.28 -8.02,-23.56 -0.65,-0.6 -0.65,-0.69 -0.65,-0.85 0,-0.29 0.2,-0.49 0.5,-0.49 0.5,0 4.98,3.38 7.92,9.71 2.54,5.48 3.14,11.01 3.14,15.19 z"
           id="path4337"
           inkscape:connector-curvature="0"
           style="fill:#000000;stroke-width:0" /></g>    </g>
    <g
       id="g4469"
       transform="translate(35.194616,75.185081)">
      <g
         word-spacing="normal"
         letter-spacing="normal"
         font-size-adjust="none"
         font-stretch="normal"
         font-weight="normal"
         font-variant="normal"
         font-style="normal"
         stroke-miterlimit="10.433"
         xml:space="preserve"
         transform="matrix(0.28571429,0,0,-0.28571429,-50,225)"
         id="g4471"
         style="font-style:normal;font-variant:normal;font-weight:normal;font-stretch:normal;letter-spacing:normal;word-spacing:normal;text-anchor:start;fill:none;fill-opacity:1;fill-rule:evenodd;stroke:#000000;stroke-linecap:butt;stroke-linejoin:miter;stroke-miterlimit:10.43299961;stroke-dasharray:none;stroke-dashoffset:0;stroke-opacity:1"><path
           id="path4473"
           d="m 463.92,409.89 -0.04,-0.18 -0.05,-0.17 -0.04,-0.16 -0.04,-0.15 -0.05,-0.15 -0.04,-0.13 -0.05,-0.13 -0.05,-0.12 -0.06,-0.11 -0.06,-0.11 -0.06,-0.1 -0.07,-0.09 -0.08,-0.09 -0.09,-0.07 -0.09,-0.08 -0.11,-0.06 -0.11,-0.07 -0.12,-0.05 -0.14,-0.05 -0.15,-0.05 -0.16,-0.04 -0.09,-0.02 -0.09,-0.02 -0.09,-0.01 -0.1,-0.02 -0.1,-0.01 -0.1,-0.01 -0.11,-0.02 -0.12,-0.01 -0.11,-0.01 -0.13,-0.01 -0.12,-0.01 -0.13,0 -0.14,-0.01 -0.14,-0.01 -0.14,0 -0.15,-0.01 -0.16,0 -0.16,0 -0.16,0 -0.18,-0.01 -0.17,0 -0.18,0 c -0.85,0 -1.4,0 -1.4,-0.94 0,-0.6 0.45,-0.6 1.4,-0.6 l 16.49,0 -0.9,1.54 -5.63,0 c -0.7,0 -0.8,0 -1.1,0.05 -0.49,0.05 -0.64,0.11 -0.64,0.5 0,0.15 0,0.25 0.25,1.15 l 6.82,27.35 c 0.45,1.74 0.55,1.89 2.69,1.89 l 5.33,0 c 4.88,0 9.01,-2.64 9.01,-9.22 0,-2.44 -0.99,-10.61 -5.23,-16.09 -1.44,-1.84 -5.37,-5.63 -11.5,-5.63 l 0.9,-1.54 c 10.36,0 20.17,10.51 20.17,21.42 0,7.02 -4.23,12.6 -11.71,12.6 l -16.73,0 c -0.95,0 -1.5,0 -1.5,-0.95 0,-0.59 0.45,-0.59 1.45,-0.59 0.64,0 1.54,-0.05 2.14,-0.1 0.8,-0.1 1.09,-0.25 1.09,-0.8 0,-0.2 -0.04,-0.35 -0.2,-0.94 z"
           inkscape:connector-curvature="0"
           style="fill:#000000;stroke-width:0" /><path
           id="path4475"
           d="m 507.32,417.51 0.14,0 0.15,0 0.17,0 0.18,0 0.18,0.01 0.2,0 0.21,0.01 0.21,0.01 0.23,0.01 0.23,0.01 0.24,0.02 0.24,0.01 0.25,0.02 0.26,0.03 0.52,0.05 0.54,0.06 0.54,0.08 0.55,0.09 0.54,0.11 0.53,0.13 0.27,0.07 0.25,0.07 0.26,0.08 0.25,0.09 0.24,0.09 0.24,0.09 c 3.48,1.5 3.73,4.44 3.73,5.14 0,2.19 -1.89,4.23 -5.33,4.23 l 0,-1.1 c 2.34,0 3.69,-1.44 3.69,-3.13 0,-5.19 -7.97,-5.19 -10.01,-5.19 l -2.05,0 c 1.95,7.58 7.08,8.32 8.37,8.32 l 0,1.1 c -5.53,0 -13.05,-4.84 -13.05,-13.55 0,-5.08 2.94,-9.02 7.82,-9.02 7.12,0 11.31,5.28 11.31,5.88 0,0.3 -0.3,0.65 -0.6,0.65 -0.25,0 -0.35,-0.1 -0.64,-0.5 -3.94,-4.93 -9.37,-4.93 -9.97,-4.93 -3.88,0 -4.33,4.18 -4.33,5.78 0,0.6 0.05,2.14 0.8,5.18 z"
           inkscape:connector-curvature="0"
           style="fill:#000000;stroke-width:0" /><path
           id="path4477"
           d="m 540.73,424.93 -0.15,0 -0.15,0 -0.14,0 -0.14,-0.01 -0.14,-0.01 -0.14,-0.02 -0.07,-0.01 -0.07,-0.01 -0.07,-0.01 -0.07,-0.02 -0.06,-0.01 -0.07,-0.02 -0.07,-0.03 -0.07,-0.02 -0.06,-0.03 -0.07,-0.03 -0.07,-0.03 -0.06,-0.04 -0.07,-0.03 -0.06,-0.05 -0.07,-0.04 -0.06,-0.05 -0.07,-0.05 -0.06,-0.06 -0.07,-0.06 -0.07,-0.06 c -0.79,-0.75 -0.89,-1.59 -0.89,-1.94 0,-1.2 0.89,-1.74 1.84,-1.74 1.45,0 2.79,1.19 2.79,3.18 0,2.45 -2.34,4.29 -5.88,4.29 -6.72,0 -13.35,-7.13 -13.35,-14.15 0,-4.48 2.89,-8.42 8.07,-8.42 7.12,0 11.31,5.28 11.31,5.88 0,0.3 -0.3,0.65 -0.6,0.65 -0.25,0 -0.35,-0.1 -0.64,-0.5 -3.94,-4.93 -9.37,-4.93 -9.97,-4.93 -3.14,0 -4.48,2.44 -4.48,5.43 0,2.04 1,6.87 2.69,9.96 1.54,2.84 4.28,4.98 7.02,4.98 1.7,0 3.59,-0.65 4.29,-1.99 z"
           inkscape:connector-curvature="0"
           style="fill:#000000;stroke-width:0" /><path
           id="path4479"
           d="m 559.49,394.04 0,0.03 0,0.03 -0.01,0.01 0,0.02 0,0.01 -0.01,0.02 0,0.02 -0.01,0.01 -0.01,0.02 -0.01,0.02 -0.01,0.03 -0.01,0.02 -0.02,0.02 -0.02,0.03 -0.02,0.03 -0.02,0.03 -0.03,0.03 -0.03,0.04 -0.01,0.02 -0.02,0.02 -0.02,0.02 -0.02,0.02 -0.02,0.02 -0.02,0.03 -0.02,0.02 -0.02,0.02 -0.02,0.03 -0.03,0.02 -0.02,0.03 -0.03,0.03 -0.02,0.03 -0.03,0.03 -0.03,0.03 -0.03,0.03 -0.03,0.03 -0.03,0.03 -0.04,0.04 -0.03,0.03 -0.04,0.04 -0.03,0.03 -0.04,0.04 -0.04,0.04 c -6.23,6.28 -7.82,15.69 -7.82,23.31 0,8.67 1.9,17.34 8.02,23.57 0.65,0.59 0.65,0.69 0.65,0.84 0,0.35 -0.2,0.5 -0.5,0.5 -0.5,0 -4.98,-3.39 -7.92,-9.72 -2.54,-5.47 -3.14,-11 -3.14,-15.19 0,-3.88 0.55,-9.91 3.29,-15.54 2.99,-6.12 7.27,-9.36 7.77,-9.36 0.3,0 0.5,0.15 0.5,0.49 z"
           inkscape:connector-curvature="0"
           style="fill:#000000;stroke-width:0" /><path
           id="path4481"
           d="m 568.62,410.13 0.25,0.27 0.25,0.26 0.23,0.24 0.23,0.24 0.22,0.23 0.22,0.23 0.21,0.21 0.2,0.21 0.2,0.2 0.2,0.2 0.19,0.19 0.19,0.18 0.18,0.18 0.18,0.18 0.36,0.33 0.34,0.32 0.33,0.3 0.33,0.29 0.32,0.29 0.64,0.56 0.33,0.29 0.33,0.28 c 0,0.05 3.09,2.69 4.88,4.49 4.74,4.63 5.83,7.02 5.83,7.22 0,0.5 -0.45,0.5 -0.54,0.5 -0.35,0 -0.5,-0.1 -0.75,-0.55 -1.5,-2.39 -2.54,-3.19 -3.74,-3.19 -1.2,0 -1.79,0.75 -2.54,1.6 -0.94,1.14 -1.79,2.14 -3.44,2.14 -3.73,0 -6.02,-4.64 -6.02,-5.68 0,-0.25 0.15,-0.55 0.59,-0.55 0.45,0 0.55,0.25 0.65,0.55 0.95,2.29 3.84,2.34 4.24,2.34 1.04,0 1.99,-0.35 3.13,-0.75 2,-0.75 2.55,-0.75 3.84,-0.75 -1.79,-2.14 -5.98,-5.72 -6.92,-6.52 l -4.49,-4.18 c -3.38,-3.34 -5.13,-6.18 -5.13,-6.53 0,-0.5 0.5,-0.5 0.6,-0.5 0.4,0 0.5,0.1 0.79,0.65 1.15,1.74 2.65,3.09 4.24,3.09 1.15,0 1.64,-0.45 2.89,-1.89 0.85,-1.05 1.74,-1.85 3.19,-1.85 4.93,0 7.82,6.33 7.82,7.67 0,0.25 -0.2,0.5 -0.6,0.5 -0.45,0 -0.55,-0.3 -0.69,-0.65 -1.15,-3.24 -4.34,-4.18 -5.98,-4.18 -1,0 -1.9,0.3 -2.94,0.65 -1.7,0.65 -2.44,0.85 -3.49,0.85 -0.1,0 -0.9,0 -1.35,-0.16 z"
           inkscape:connector-curvature="0"
           style="fill:#000000;stroke-width:0" /><path
           id="path4483"
           d="m 602.4,418.45 -0.01,0.37 0,0.39 -0.01,0.39 -0.01,0.41 -0.04,0.84 -0.06,0.88 -0.09,0.92 -0.1,0.94 -0.14,0.98 -0.16,1 -0.2,1.02 -0.23,1.04 -0.27,1.05 -0.3,1.06 -0.35,1.06 -0.39,1.07 -0.22,0.53 -0.22,0.54 -0.24,0.53 -0.25,0.53 c -2.99,6.12 -7.27,9.36 -7.77,9.36 -0.3,0 -0.5,-0.2 -0.5,-0.5 0,-0.15 0,-0.25 0.94,-1.15 4.89,-4.92 7.73,-12.85 7.73,-23.26 0,-8.52 -1.85,-17.28 -8.02,-23.56 -0.65,-0.6 -0.65,-0.69 -0.65,-0.85 0,-0.29 0.2,-0.49 0.5,-0.49 0.5,0 4.98,3.38 7.92,9.71 2.54,5.48 3.14,11.01 3.14,15.19 z"
           inkscape:connector-curvature="0"
           style="fill:#000000;stroke-width:0" /></g>    </g>
    <g
       transform="translate(115.24855,19.98095)"
       id="g4631">
      <g
         style="font-style:normal;font-variant:normal;font-weight:normal;font-stretch:normal;letter-spacing:normal;word-spacing:normal;text-anchor:start;fill:none;fill-opacity:1;fill-rule:evenodd;stroke:#000000;stroke-linecap:butt;stroke-linejoin:miter;stroke-miterlimit:10.43299961;stroke-dasharray:none;stroke-dashoffset:0;stroke-opacity:1"
         id="g4633"
         transform="matrix(0.28571429,0,0,-0.28571429,-50,225)"
         xml:space="preserve"
         stroke-miterlimit="10.433"
         font-style="normal"
         font-variant="normal"
         font-weight="normal"
         font-stretch="normal"
         font-size-adjust="none"
         letter-spacing="normal"
         word-spacing="normal"><path
           style="fill:#000000;stroke-width:0"
           inkscape:connector-curvature="0"
           d="m 458.24,399.92 -0.03,-0.15 -0.04,-0.15 -0.03,-0.14 -0.04,-0.13 -0.03,-0.13 -0.04,-0.11 -0.03,-0.12 -0.04,-0.1 -0.04,-0.1 -0.04,-0.09 -0.04,-0.09 -0.05,-0.08 -0.05,-0.07 -0.05,-0.07 -0.06,-0.07 -0.06,-0.05 -0.07,-0.06 -0.07,-0.05 -0.08,-0.04 -0.09,-0.04 -0.09,-0.04 -0.1,-0.03 -0.11,-0.03 -0.12,-0.02 -0.13,-0.02 -0.13,-0.02 -0.07,0 -0.08,-0.01 -0.07,-0.01 -0.08,0 -0.08,-0.01 -0.09,0 -0.08,0 -0.09,-0.01 -0.09,0 -0.1,0 -0.1,0 -0.1,0 c -0.6,0 -1.14,0 -1.14,-0.95 0,-0.39 0.25,-0.59 0.64,-0.59 l 9.12,0 c 0.25,0 0.9,0 0.9,0.99 0,0.55 -0.5,0.55 -1.2,0.55 -2.49,0 -2.49,0.35 -2.49,0.8 0,0.59 2.09,8.71 2.44,9.96 0.65,-1.44 2.04,-3.19 4.58,-3.19 l -0.04,1.1 c -3.29,0 -3.94,4.13 -3.94,4.43 0,0.1 0,0.2 0.15,0.8 l 2.44,9.76 c 0.35,1.35 1.69,2.74 2.59,3.49 1.74,1.54 3.19,1.89 4.03,1.89 1.99,0 3.19,-1.74 3.19,-4.68 0,-2.94 -1.64,-8.67 -2.54,-10.56 -1.69,-3.49 -4.08,-5.13 -5.92,-5.13 l 0.04,-1.1 c 5.78,0 12.01,7.28 12.01,14.6 0,4.68 -2.84,7.97 -6.62,7.97 -2.5,0 -4.89,-1.8 -6.53,-3.74 -0.5,2.69 -2.64,3.74 -4.49,3.74 -2.29,0 -3.23,-1.95 -3.68,-2.84 -0.9,-1.7 -1.55,-4.68 -1.55,-4.83 0,-0.5 0.5,-0.5 0.6,-0.5 0.5,0 0.55,0.05 0.85,1.14 0.85,3.54 1.84,5.93 3.63,5.93 0.85,0 1.55,-0.4 1.55,-2.29 0,-1.15 -0.15,-1.69 -0.35,-2.54 z"
           id="path4635" /><path
           style="fill:#000000;stroke-width:0"
           inkscape:connector-curvature="0"
           d="m 498.82,415.98 -0.01,0.34 -0.01,0.35 -0.02,0.34 -0.03,0.35 -0.04,0.34 -0.05,0.34 -0.05,0.33 -0.07,0.34 -0.07,0.32 -0.08,0.33 -0.09,0.31 -0.11,0.31 -0.11,0.3 -0.12,0.3 -0.13,0.28 -0.14,0.28 -0.15,0.26 -0.16,0.25 -0.17,0.24 -0.18,0.23 -0.19,0.21 -0.2,0.2 -0.22,0.18 -0.22,0.17 -0.23,0.15 -0.25,0.13 -0.26,0.12 -0.27,0.09 -0.27,0.08 -0.3,0.05 -0.3,0.04 -0.31,0.01 -0.04,-0.98 c 2.23,0 2.23,-3.87 2.23,-4.53 0,-1.36 -0.27,-3.38 -1.01,-6.31 l -8.05,0 c 1.77,7.53 4.77,10.84 6.83,10.84 l 0.04,0.98 c -5.23,0 -10.81,-9.35 -10.81,-17.33 0,-4.15 1.6,-7.57 4.81,-7.57 l 0.03,0.98 c -1.92,0 -2.23,2.65 -2.23,4.53 0,2.3 0.66,5.02 1.01,6.31 l 8.06,0 c -0.98,-3.8 -1.78,-5.68 -2.83,-7.39 -1.08,-1.81 -2.47,-3.45 -4.01,-3.45 l -0.03,-0.98 c 5.3,0 10.81,9.52 10.81,17.33 z"
           id="path4637" /><path
           style="fill:#000000;stroke-width:0"
           inkscape:connector-curvature="0"
           d="m 519.49,394.04 0,0.03 0,0.03 -0.01,0.01 0,0.02 0,0.01 -0.01,0.02 0,0.02 -0.01,0.01 -0.01,0.02 -0.01,0.02 -0.01,0.03 -0.01,0.02 -0.02,0.02 -0.02,0.03 -0.02,0.03 -0.02,0.03 -0.03,0.03 -0.03,0.04 -0.01,0.02 -0.02,0.02 -0.02,0.02 -0.02,0.02 -0.02,0.02 -0.02,0.03 -0.02,0.02 -0.02,0.02 -0.02,0.03 -0.03,0.02 -0.02,0.03 -0.03,0.03 -0.02,0.03 -0.03,0.03 -0.03,0.03 -0.03,0.03 -0.03,0.03 -0.03,0.03 -0.04,0.04 -0.03,0.03 -0.04,0.04 -0.03,0.03 -0.04,0.04 -0.04,0.04 c -6.23,6.28 -7.82,15.69 -7.82,23.31 0,8.67 1.9,17.34 8.02,23.57 0.65,0.59 0.65,0.69 0.65,0.84 0,0.35 -0.2,0.5 -0.5,0.5 -0.5,0 -4.98,-3.39 -7.92,-9.72 -2.54,-5.47 -3.14,-11 -3.14,-15.19 0,-3.88 0.55,-9.91 3.29,-15.54 2.99,-6.12 7.27,-9.36 7.77,-9.36 0.3,0 0.5,0.15 0.5,0.49 z"
           id="path4639" /><path
           style="fill:#000000;stroke-width:0"
           inkscape:connector-curvature="0"
           d="m 557.87,438.83 0.01,0.04 0.01,0.03 0.01,0.04 0.01,0.05 0.01,0.04 0.01,0.04 0.02,0.05 0.01,0.04 0.01,0.05 0.01,0.05 0.01,0.05 0.01,0.05 0.01,0.05 0,0.03 0,0.02 0,0.03 0,0.03 0.01,0.03 0,0.02 c 0,0.45 -0.25,0.45 -1.25,0.45 l -21.02,0 c -1.2,0 -1.25,-0.05 -1.55,-0.99 l -2.73,-8.97 c -0.11,-0.25 -0.15,-0.6 -0.15,-0.7 0,-0.05 0,-0.55 0.59,-0.55 0.45,0 0.55,0.35 0.65,0.5 1.89,5.88 4.48,9.17 12.25,9.17 l 8.12,0 -27.84,-31.14 c 0,-0.04 -0.2,-0.74 -0.2,-0.89 0,-0.45 0.35,-0.45 1.24,-0.45 l 21.67,0 c 1.2,0 1.25,0.05 1.55,1 l 3.53,11 c 0.05,0.2 0.2,0.55 0.2,0.75 0,0.25 -0.2,0.55 -0.64,0.55 -0.45,0 -0.5,-0.2 -0.85,-1.25 -2.19,-6.77 -4.58,-10.35 -13.05,-10.35 l -8.52,0 z"
           id="path4641" /><path
           style="fill:#000000;stroke-width:0"
           inkscape:connector-curvature="0"
           d="m 567.92,441.57 0,0.16 0,0.17 0,0.17 -0.01,0.08 0,0.08 -0.01,0.07 -0.01,0.08 -0.01,0.08 -0.01,0.07 -0.01,0.07 -0.02,0.07 -0.02,0.07 -0.02,0.06 -0.03,0.06 -0.03,0.06 -0.03,0.06 -0.03,0.05 -0.04,0.05 -0.04,0.04 -0.05,0.05 -0.05,0.04 -0.05,0.03 -0.03,0.02 -0.03,0.01 -0.03,0.01 -0.04,0.02 -0.03,0.01 -0.04,0.01 -0.03,0.01 -0.04,0.01 -0.04,0 -0.04,0.01 -0.04,0 -0.04,0.01 -0.05,0 -0.04,0 c -1,0 -1,-0.9 -1,-1.79 l 0,-46.23 c 0,-0.89 0,-1.79 1,-1.79 0.99,0 0.99,0.9 0.99,1.79 z"
           id="path4643" /><path
           style="fill:#000000;stroke-width:0"
           inkscape:connector-curvature="0"
           d="m 598.16,426.47 -4.18,9.92 c -0.16,0.4 -0.25,0.59 -0.25,0.65 0,0.29 0.84,1.24 2.93,1.44 0.5,0.05 1,0.1 1,0.95 0,0.59 -0.6,0.59 -0.75,0.59 l -11.85,0 c -0.3,0 -0.9,0 -0.9,-0.99 0,-0.55 0.5,-0.55 1.15,-0.55 2.99,0 3.28,-0.5 3.73,-1.6 l 5.88,-13.9 -10.51,-11.3 -0.65,-0.55 c -2.44,-2.64 -4.78,-3.43 -7.32,-3.59 -0.65,-0.04 -1.1,-0.04 -1.1,-0.99 0,-0.05 0,-0.55 0.65,-0.55 l 10.26,0 c 0.3,0 0.9,0 0.9,1 0,0.5 -0.5,0.54 -0.6,0.54 -0.45,0.05 -1.99,0.16 -1.99,1.55 0,0.8 0.75,1.59 1.35,2.24 l 5.07,5.38 4.49,4.88 5.03,-11.9 c 0.2,-0.55 0.25,-0.6 0.25,-0.7 0,-0.4 -0.95,-1.25 -2.89,-1.45 -0.55,-0.04 -1,-0.09 -1,-0.94 0,-0.6 0.55,-0.6 0.75,-0.6 l 11.81,0 c 0.35,0 0.94,0 0.94,0.95 0,0.59 -0.49,0.59 -0.89,0.59 -3.34,0.05 -3.44,0.2 -4.29,2.19 -1.94,4.64 -5.28,12.41 -6.42,15.4 3.39,3.48 8.62,9.41 10.21,10.81 1.44,1.19 3.33,2.39 6.33,2.54 0.64,0.05 1.09,0.05 1.09,0.99 0,0.05 0,0.55 -0.65,0.55 l -10.21,0 c -0.3,0 -0.94,0 -0.94,-0.99 0,-0.35 0.25,-0.5 0.59,-0.55 0.45,-0.05 2,-0.15 2,-1.55 0,-0.69 -0.55,-1.34 -0.95,-1.79 z"
           id="path4645" /><path
           style="fill:#000000;stroke-width:0"
           inkscape:connector-curvature="0"
           d="m 667.22,422.29 0.14,0 0.15,0 0.15,0.01 0.07,0 0.07,0 0.07,0.01 0.08,0.01 0.07,0.01 0.07,0.01 0.06,0.02 0.07,0.01 0.07,0.02 0.06,0.02 0.06,0.03 0.06,0.03 0.05,0.03 0.06,0.03 0.05,0.04 0.04,0.04 0.05,0.05 0.03,0.05 0.02,0.03 0.02,0.02 0.02,0.03 0.01,0.03 0.02,0.03 0.01,0.04 0.01,0.03 0.01,0.04 0.01,0.03 0.01,0.04 0.01,0.04 0,0.04 0.01,0.04 0,0.04 0,0.05 0,0.05 c 0,0.99 -0.94,0.99 -1.64,0.99 l -29.84,0 c -0.7,0 -1.64,0 -1.64,-0.99 0,-1 0.94,-1 1.69,-1 z"
           id="path4647" /><path
           style="fill:#000000;stroke-width:0"
           inkscape:connector-curvature="0"
           d="m 667.27,412.62 0.13,0.01 0.14,0 0.14,0 0.07,0.01 0.07,0 0.07,0.01 0.07,0.01 0.07,0.01 0.07,0.01 0.06,0.01 0.07,0.02 0.06,0.02 0.06,0.02 0.06,0.02 0.06,0.03 0.06,0.03 0.05,0.04 0.05,0.04 0.04,0.04 0.05,0.04 0.02,0.03 0.02,0.03 0.01,0.02 0.02,0.03 0.02,0.03 0.01,0.03 0.02,0.03 0.01,0.03 0.01,0.04 0.01,0.03 0.01,0.04 0.01,0.04 0.01,0.04 0,0.04 0.01,0.04 0,0.04 0,0.05 0,0.04 c 0,1 -0.94,1 -1.69,1 l -29.74,0 c -0.75,0 -1.69,0 -1.69,-1 0,-1 0.94,-1 1.64,-1 z"
           id="path4649" /><path
           style="fill:#000000;stroke-width:0"
           inkscape:connector-curvature="0"
           d="m 702.64,421.04 0.03,0.13 0.03,0.15 0.05,0.17 0.04,0.18 0.06,0.19 0.06,0.21 0.06,0.21 0.07,0.23 0.08,0.23 0.09,0.24 0.1,0.25 0.1,0.24 0.11,0.25 0.12,0.25 0.13,0.25 0.14,0.25 0.15,0.24 0.15,0.24 0.17,0.23 0.18,0.22 0.18,0.22 0.2,0.2 0.21,0.19 0.22,0.18 0.23,0.16 0.25,0.14 0.12,0.07 0.13,0.06 0.13,0.05 0.14,0.05 0.14,0.05 0.14,0.04 0.14,0.03 0.15,0.03 0.15,0.02 0.16,0.02 0.16,0.01 0.16,0 c 0.25,0 1.45,0 2.49,-0.65 -1.4,-0.25 -2.39,-1.49 -2.39,-2.68 0,-0.8 0.55,-1.75 1.89,-1.75 1.1,0 2.69,0.9 2.69,2.89 0,2.59 -2.94,3.29 -4.63,3.29 -2.89,0 -4.64,-2.64 -5.23,-3.79 -1.24,3.29 -3.94,3.79 -5.38,3.79 -5.18,0 -8.02,-6.43 -8.02,-7.67 0,-0.5 0.5,-0.5 0.6,-0.5 0.39,0 0.54,0.1 0.64,0.54 1.7,5.29 4.99,6.53 6.68,6.53 0.94,0 2.69,-0.45 2.69,-3.33 0,-1.55 -0.85,-4.89 -2.69,-11.86 -0.8,-3.09 -2.54,-5.18 -4.73,-5.18 -0.3,0 -1.45,0 -2.49,0.65 1.24,0.25 2.34,1.29 2.34,2.69 0,1.34 -1.1,1.74 -1.85,1.74 -1.49,0 -2.73,-1.3 -2.73,-2.89 0,-2.29 2.48,-3.29 4.68,-3.29 3.28,0 5.08,3.49 5.22,3.79 0.61,-1.85 2.4,-3.79 5.39,-3.79 5.13,0 7.97,6.43 7.97,7.67 0,0.5 -0.45,0.5 -0.6,0.5 -0.45,0 -0.55,-0.2 -0.65,-0.55 -1.64,-5.33 -5.03,-6.52 -6.62,-6.52 -1.94,0 -2.74,1.59 -2.74,3.29 0,1.09 0.3,2.19 0.85,4.38 z"
           id="path4651" /><path
           style="fill:#000000;stroke-width:0"
           inkscape:connector-curvature="0"
           d="m 728.4,418.45 -0.01,0.37 0,0.39 -0.01,0.39 -0.01,0.41 -0.04,0.84 -0.06,0.88 -0.09,0.92 -0.1,0.94 -0.14,0.98 -0.16,1 -0.2,1.02 -0.23,1.04 -0.27,1.05 -0.3,1.06 -0.35,1.06 -0.39,1.07 -0.22,0.53 -0.22,0.54 -0.24,0.53 -0.25,0.53 c -2.99,6.12 -7.27,9.36 -7.77,9.36 -0.3,0 -0.5,-0.2 -0.5,-0.5 0,-0.15 0,-0.25 0.94,-1.15 4.89,-4.92 7.73,-12.85 7.73,-23.26 0,-8.52 -1.85,-17.28 -8.02,-23.56 -0.65,-0.6 -0.65,-0.69 -0.65,-0.85 0,-0.29 0.2,-0.49 0.5,-0.49 0.5,0 4.98,3.38 7.92,9.71 2.54,5.48 3.14,11.01 3.14,15.19 z"
           id="path4653" /></g>    </g>
    <g
       id="g4827"
       transform="translate(115.9339,78.099721)">
      <g
         word-spacing="normal"
         letter-spacing="normal"
         font-size-adjust="none"
         font-stretch="normal"
         font-weight="normal"
         font-variant="normal"
         font-style="normal"
         stroke-miterlimit="10.433"
         xml:space="preserve"
         transform="matrix(0.28571429,0,0,-0.28571429,-50,225)"
         id="g4829"
         style="font-style:normal;font-variant:normal;font-weight:normal;font-stretch:normal;letter-spacing:normal;word-spacing:normal;text-anchor:start;fill:none;fill-opacity:1;fill-rule:evenodd;stroke:#000000;stroke-linecap:butt;stroke-linejoin:miter;stroke-miterlimit:10.43299961;stroke-dasharray:none;stroke-dashoffset:0;stroke-opacity:1"><path
           id="path4831"
           d="m 458.24,399.92 -0.03,-0.15 -0.04,-0.15 -0.03,-0.14 -0.04,-0.13 -0.03,-0.13 -0.04,-0.11 -0.03,-0.12 -0.04,-0.1 -0.04,-0.1 -0.04,-0.09 -0.04,-0.09 -0.05,-0.08 -0.05,-0.07 -0.05,-0.07 -0.06,-0.07 -0.06,-0.05 -0.07,-0.06 -0.07,-0.05 -0.08,-0.04 -0.09,-0.04 -0.09,-0.04 -0.1,-0.03 -0.11,-0.03 -0.12,-0.02 -0.13,-0.02 -0.13,-0.02 -0.07,0 -0.08,-0.01 -0.07,-0.01 -0.08,0 -0.08,-0.01 -0.09,0 -0.08,0 -0.09,-0.01 -0.09,0 -0.1,0 -0.1,0 -0.1,0 c -0.6,0 -1.14,0 -1.14,-0.95 0,-0.39 0.25,-0.59 0.64,-0.59 l 9.12,0 c 0.25,0 0.9,0 0.9,0.99 0,0.55 -0.5,0.55 -1.2,0.55 -2.49,0 -2.49,0.35 -2.49,0.8 0,0.59 2.09,8.71 2.44,9.96 0.65,-1.44 2.04,-3.19 4.58,-3.19 l -0.04,1.1 c -3.29,0 -3.94,4.13 -3.94,4.43 0,0.1 0,0.2 0.15,0.8 l 2.44,9.76 c 0.35,1.35 1.69,2.74 2.59,3.49 1.74,1.54 3.19,1.89 4.03,1.89 1.99,0 3.19,-1.74 3.19,-4.68 0,-2.94 -1.64,-8.67 -2.54,-10.56 -1.69,-3.49 -4.08,-5.13 -5.92,-5.13 l 0.04,-1.1 c 5.78,0 12.01,7.28 12.01,14.6 0,4.68 -2.84,7.97 -6.62,7.97 -2.5,0 -4.89,-1.8 -6.53,-3.74 -0.5,2.69 -2.64,3.74 -4.49,3.74 -2.29,0 -3.23,-1.95 -3.68,-2.84 -0.9,-1.7 -1.55,-4.68 -1.55,-4.83 0,-0.5 0.5,-0.5 0.6,-0.5 0.5,0 0.55,0.05 0.85,1.14 0.85,3.54 1.84,5.93 3.63,5.93 0.85,0 1.55,-0.4 1.55,-2.29 0,-1.15 -0.15,-1.69 -0.35,-2.54 z"
           inkscape:connector-curvature="0"
           style="fill:#000000;stroke-width:0" /><path
           id="path4833"
           d="m 498.82,415.98 -0.01,0.34 -0.01,0.35 -0.02,0.34 -0.03,0.35 -0.04,0.34 -0.05,0.34 -0.05,0.33 -0.07,0.34 -0.07,0.32 -0.08,0.33 -0.09,0.31 -0.11,0.31 -0.11,0.3 -0.12,0.3 -0.13,0.28 -0.14,0.28 -0.15,0.26 -0.16,0.25 -0.17,0.24 -0.18,0.23 -0.19,0.21 -0.2,0.2 -0.22,0.18 -0.22,0.17 -0.23,0.15 -0.25,0.13 -0.26,0.12 -0.27,0.09 -0.27,0.08 -0.3,0.05 -0.3,0.04 -0.31,0.01 -0.04,-0.98 c 2.23,0 2.23,-3.87 2.23,-4.53 0,-1.36 -0.27,-3.38 -1.01,-6.31 l -8.05,0 c 1.77,7.53 4.77,10.84 6.83,10.84 l 0.04,0.98 c -5.23,0 -10.81,-9.35 -10.81,-17.33 0,-4.15 1.6,-7.57 4.81,-7.57 l 0.03,0.98 c -1.92,0 -2.23,2.65 -2.23,4.53 0,2.3 0.66,5.02 1.01,6.31 l 8.06,0 c -0.98,-3.8 -1.78,-5.68 -2.83,-7.39 -1.08,-1.81 -2.47,-3.45 -4.01,-3.45 l -0.03,-0.98 c 5.3,0 10.81,9.52 10.81,17.33 z"
           inkscape:connector-curvature="0"
           style="fill:#000000;stroke-width:0" /><path
           id="path4835"
           d="m 519.49,394.04 0,0.03 0,0.03 -0.01,0.01 0,0.02 0,0.01 -0.01,0.02 0,0.02 -0.01,0.01 -0.01,0.02 -0.01,0.02 -0.01,0.03 -0.01,0.02 -0.02,0.02 -0.02,0.03 -0.02,0.03 -0.02,0.03 -0.03,0.03 -0.03,0.04 -0.01,0.02 -0.02,0.02 -0.02,0.02 -0.02,0.02 -0.02,0.02 -0.02,0.03 -0.02,0.02 -0.02,0.02 -0.02,0.03 -0.03,0.02 -0.02,0.03 -0.03,0.03 -0.02,0.03 -0.03,0.03 -0.03,0.03 -0.03,0.03 -0.03,0.03 -0.03,0.03 -0.04,0.04 -0.03,0.03 -0.04,0.04 -0.03,0.03 -0.04,0.04 -0.04,0.04 c -6.23,6.28 -7.82,15.69 -7.82,23.31 0,8.67 1.9,17.34 8.02,23.57 0.65,0.59 0.65,0.69 0.65,0.84 0,0.35 -0.2,0.5 -0.5,0.5 -0.5,0 -4.98,-3.39 -7.92,-9.72 -2.54,-5.47 -3.14,-11 -3.14,-15.19 0,-3.88 0.55,-9.91 3.29,-15.54 2.99,-6.12 7.27,-9.36 7.77,-9.36 0.3,0 0.5,0.15 0.5,0.49 z"
           inkscape:connector-curvature="0"
           style="fill:#000000;stroke-width:0" /><path
           id="path4837"
           d="m 546.16,426.47 -4.18,9.92 c -0.16,0.4 -0.25,0.59 -0.25,0.65 0,0.29 0.84,1.24 2.93,1.44 0.5,0.05 1,0.1 1,0.95 0,0.59 -0.6,0.59 -0.75,0.59 l -11.85,0 c -0.3,0 -0.9,0 -0.9,-0.99 0,-0.55 0.5,-0.55 1.15,-0.55 2.99,0 3.28,-0.5 3.73,-1.6 l 5.88,-13.9 -10.51,-11.3 -0.65,-0.55 c -2.44,-2.64 -4.78,-3.43 -7.32,-3.59 -0.65,-0.04 -1.1,-0.04 -1.1,-0.99 0,-0.05 0,-0.55 0.65,-0.55 l 10.26,0 c 0.3,0 0.9,0 0.9,1 0,0.5 -0.5,0.54 -0.6,0.54 -0.45,0.05 -1.99,0.16 -1.99,1.55 0,0.8 0.75,1.59 1.35,2.24 l 5.07,5.38 4.49,4.88 5.03,-11.9 c 0.2,-0.55 0.25,-0.6 0.25,-0.7 0,-0.4 -0.95,-1.25 -2.89,-1.45 -0.55,-0.04 -1,-0.09 -1,-0.94 0,-0.6 0.55,-0.6 0.75,-0.6 l 11.81,0 c 0.35,0 0.94,0 0.94,0.95 0,0.59 -0.49,0.59 -0.89,0.59 -3.34,0.05 -3.44,0.2 -4.29,2.19 -1.94,4.64 -5.28,12.41 -6.42,15.4 3.39,3.48 8.62,9.41 10.21,10.81 1.44,1.19 3.33,2.39 6.33,2.54 0.64,0.05 1.09,0.05 1.09,0.99 0,0.05 0,0.55 -0.65,0.55 l -10.21,0 c -0.3,0 -0.94,0 -0.94,-0.99 0,-0.35 0.25,-0.5 0.59,-0.55 0.45,-0.05 2,-0.15 2,-1.55 0,-0.69 -0.55,-1.34 -0.95,-1.79 z"
           inkscape:connector-curvature="0"
           style="fill:#000000;stroke-width:0" /><path
           id="path4839"
           d="m 575.92,441.57 0,0.16 0,0.17 0,0.17 -0.01,0.08 0,0.08 -0.01,0.07 -0.01,0.08 -0.01,0.08 -0.01,0.07 -0.01,0.07 -0.02,0.07 -0.02,0.07 -0.02,0.06 -0.03,0.06 -0.03,0.06 -0.03,0.06 -0.03,0.05 -0.04,0.05 -0.04,0.04 -0.05,0.05 -0.05,0.04 -0.05,0.03 -0.03,0.02 -0.03,0.01 -0.03,0.01 -0.04,0.02 -0.03,0.01 -0.04,0.01 -0.03,0.01 -0.04,0.01 -0.04,0 -0.04,0.01 -0.04,0 -0.04,0.01 -0.05,0 -0.04,0 c -1,0 -1,-0.9 -1,-1.79 l 0,-46.23 c 0,-0.89 0,-1.79 1,-1.79 0.99,0 0.99,0.9 0.99,1.79 z"
           inkscape:connector-curvature="0"
           style="fill:#000000;stroke-width:0" /><path
           id="path4841"
           d="m 617.87,438.83 0.01,0.04 0.01,0.03 0.01,0.04 0.01,0.05 0.01,0.04 0.01,0.04 0.02,0.05 0.01,0.04 0.01,0.05 0.01,0.05 0.01,0.05 0.01,0.05 0.01,0.05 0,0.03 0,0.02 0,0.03 0,0.03 0.01,0.03 0,0.02 c 0,0.45 -0.25,0.45 -1.25,0.45 l -21.02,0 c -1.2,0 -1.25,-0.05 -1.55,-0.99 l -2.73,-8.97 c -0.11,-0.25 -0.15,-0.6 -0.15,-0.7 0,-0.05 0,-0.55 0.59,-0.55 0.45,0 0.55,0.35 0.65,0.5 1.89,5.88 4.48,9.17 12.25,9.17 l 8.12,0 -27.84,-31.14 c 0,-0.04 -0.2,-0.74 -0.2,-0.89 0,-0.45 0.35,-0.45 1.24,-0.45 l 21.67,0 c 1.2,0 1.25,0.05 1.55,1 l 3.53,11 c 0.05,0.2 0.2,0.55 0.2,0.75 0,0.25 -0.2,0.55 -0.64,0.55 -0.45,0 -0.5,-0.2 -0.85,-1.25 -2.19,-6.77 -4.58,-10.35 -13.05,-10.35 l -8.52,0 z"
           inkscape:connector-curvature="0"
           style="fill:#000000;stroke-width:0" /><path
           id="path4843"
           d="m 667.22,422.29 0.14,0 0.15,0 0.15,0.01 0.07,0 0.07,0 0.07,0.01 0.08,0.01 0.07,0.01 0.07,0.01 0.06,0.02 0.07,0.01 0.07,0.02 0.06,0.02 0.06,0.03 0.06,0.03 0.05,0.03 0.06,0.03 0.05,0.04 0.04,0.04 0.05,0.05 0.03,0.05 0.02,0.03 0.02,0.02 0.02,0.03 0.01,0.03 0.02,0.03 0.01,0.04 0.01,0.03 0.01,0.04 0.01,0.03 0.01,0.04 0.01,0.04 0,0.04 0.01,0.04 0,0.04 0,0.05 0,0.05 c 0,0.99 -0.94,0.99 -1.64,0.99 l -29.84,0 c -0.7,0 -1.64,0 -1.64,-0.99 0,-1 0.94,-1 1.69,-1 z"
           inkscape:connector-curvature="0"
           style="fill:#000000;stroke-width:0" /><path
           id="path4845"
           d="m 667.27,412.62 0.13,0.01 0.14,0 0.14,0 0.07,0.01 0.07,0 0.07,0.01 0.07,0.01 0.07,0.01 0.07,0.01 0.06,0.01 0.07,0.02 0.06,0.02 0.06,0.02 0.06,0.02 0.06,0.03 0.06,0.03 0.05,0.04 0.05,0.04 0.04,0.04 0.05,0.04 0.02,0.03 0.02,0.03 0.01,0.02 0.02,0.03 0.02,0.03 0.01,0.03 0.02,0.03 0.01,0.03 0.01,0.04 0.01,0.03 0.01,0.04 0.01,0.04 0.01,0.04 0,0.04 0.01,0.04 0,0.04 0,0.05 0,0.04 c 0,1 -0.94,1 -1.69,1 l -29.74,0 c -0.75,0 -1.69,0 -1.69,-1 0,-1 0.94,-1 1.64,-1 z"
           inkscape:connector-curvature="0"
           style="fill:#000000;stroke-width:0" /><path
           id="path4847"
           d="m 692.62,410.13 0.25,0.27 0.25,0.26 0.23,0.24 0.23,0.24 0.22,0.23 0.22,0.23 0.21,0.21 0.2,0.21 0.2,0.2 0.2,0.2 0.19,0.19 0.19,0.18 0.18,0.18 0.18,0.18 0.36,0.33 0.34,0.32 0.33,0.3 0.33,0.29 0.32,0.29 0.64,0.56 0.33,0.29 0.33,0.28 c 0,0.05 3.09,2.69 4.88,4.49 4.74,4.63 5.83,7.02 5.83,7.22 0,0.5 -0.45,0.5 -0.54,0.5 -0.35,0 -0.5,-0.1 -0.75,-0.55 -1.5,-2.39 -2.54,-3.19 -3.74,-3.19 -1.2,0 -1.79,0.75 -2.54,1.6 -0.94,1.14 -1.79,2.14 -3.44,2.14 -3.73,0 -6.02,-4.64 -6.02,-5.68 0,-0.25 0.15,-0.55 0.59,-0.55 0.45,0 0.55,0.25 0.65,0.55 0.95,2.29 3.84,2.34 4.24,2.34 1.04,0 1.99,-0.35 3.13,-0.75 2,-0.75 2.55,-0.75 3.84,-0.75 -1.79,-2.14 -5.98,-5.72 -6.92,-6.52 l -4.49,-4.18 c -3.38,-3.34 -5.13,-6.18 -5.13,-6.53 0,-0.5 0.5,-0.5 0.6,-0.5 0.4,0 0.5,0.1 0.79,0.65 1.15,1.74 2.65,3.09 4.24,3.09 1.15,0 1.64,-0.45 2.89,-1.89 0.85,-1.05 1.74,-1.85 3.19,-1.85 4.93,0 7.82,6.33 7.82,7.67 0,0.25 -0.2,0.5 -0.6,0.5 -0.45,0 -0.55,-0.3 -0.69,-0.65 -1.15,-3.24 -4.34,-4.18 -5.98,-4.18 -1,0 -1.9,0.3 -2.94,0.65 -1.7,0.65 -2.44,0.85 -3.49,0.85 -0.1,0 -0.9,0 -1.35,-0.16 z"
           inkscape:connector-curvature="0"
           style="fill:#000000;stroke-width:0" /><path
           id="path4849"
           d="m 725.4,418.45 -0.01,0.37 0,0.39 -0.01,0.39 -0.01,0.41 -0.04,0.84 -0.06,0.88 -0.09,0.92 -0.1,0.94 -0.14,0.98 -0.16,1 -0.2,1.02 -0.23,1.04 -0.27,1.05 -0.3,1.06 -0.35,1.06 -0.39,1.07 -0.22,0.53 -0.22,0.54 -0.24,0.53 -0.25,0.53 c -2.99,6.12 -7.27,9.36 -7.77,9.36 -0.3,0 -0.5,-0.2 -0.5,-0.5 0,-0.15 0,-0.25 0.94,-1.15 4.89,-4.92 7.73,-12.85 7.73,-23.26 0,-8.52 -1.85,-17.28 -8.02,-23.56 -0.65,-0.6 -0.65,-0.69 -0.65,-0.85 0,-0.29 0.2,-0.49 0.5,-0.49 0.5,0 4.98,3.38 7.92,9.71 2.54,5.48 3.14,11.01 3.14,15.19 z"
           inkscape:connector-curvature="0"
           style="fill:#000000;stroke-width:0" /></g>    </g>
    <g
       transform="translate(-193.36001,78.800007)"
       id="g5045">
      <g
         style="font-style:normal;font-variant:normal;font-weight:normal;font-stretch:normal;letter-spacing:normal;word-spacing:normal;text-anchor:start;fill:none;fill-opacity:1;fill-rule:evenodd;stroke:#000000;stroke-linecap:butt;stroke-linejoin:miter;stroke-miterlimit:10.43299961;stroke-dasharray:none;stroke-dashoffset:0;stroke-opacity:1"
         id="g5047"
         transform="matrix(0.28571429,0,0,-0.28571429,-50,225)"
         xml:space="preserve"
         stroke-miterlimit="10.433"
         font-style="normal"
         font-variant="normal"
         font-weight="normal"
         font-stretch="normal"
         font-size-adjust="none"
         letter-spacing="normal"
         word-spacing="normal"><path
           style="fill:#000000;stroke-width:0"
           inkscape:connector-curvature="0"
           d="m 472.64,421.04 0.03,0.13 0.03,0.15 0.05,0.17 0.04,0.18 0.06,0.19 0.06,0.21 0.06,0.21 0.07,0.23 0.08,0.23 0.09,0.24 0.1,0.25 0.1,0.24 0.11,0.25 0.12,0.25 0.13,0.25 0.14,0.25 0.15,0.24 0.15,0.24 0.17,0.23 0.18,0.22 0.18,0.22 0.2,0.2 0.21,0.19 0.22,0.18 0.23,0.16 0.25,0.14 0.12,0.07 0.13,0.06 0.13,0.05 0.14,0.05 0.14,0.05 0.14,0.04 0.14,0.03 0.15,0.03 0.15,0.02 0.16,0.02 0.16,0.01 0.16,0 c 0.25,0 1.45,0 2.49,-0.65 -1.4,-0.25 -2.39,-1.49 -2.39,-2.68 0,-0.8 0.54,-1.75 1.89,-1.75 1.1,0 2.69,0.9 2.69,2.89 0,2.59 -2.94,3.29 -4.63,3.29 -2.89,0 -4.64,-2.64 -5.23,-3.79 -1.25,3.29 -3.94,3.79 -5.38,3.79 -5.18,0 -8.02,-6.43 -8.02,-7.67 0,-0.5 0.5,-0.5 0.6,-0.5 0.39,0 0.54,0.1 0.64,0.54 1.7,5.29 4.98,6.53 6.68,6.53 0.95,0 2.69,-0.45 2.69,-3.33 0,-1.55 -0.85,-4.89 -2.69,-11.86 -0.8,-3.09 -2.54,-5.18 -4.73,-5.18 -0.3,0 -1.45,0 -2.49,0.65 1.24,0.25 2.34,1.29 2.34,2.69 0,1.34 -1.1,1.74 -1.85,1.74 -1.49,0 -2.73,-1.3 -2.73,-2.89 0,-2.29 2.48,-3.29 4.68,-3.29 3.28,0 5.08,3.49 5.23,3.79 0.6,-1.85 2.39,-3.79 5.38,-3.79 5.13,0 7.97,6.43 7.97,7.67 0,0.5 -0.45,0.5 -0.6,0.5 -0.45,0 -0.55,-0.2 -0.65,-0.55 -1.64,-5.33 -5.03,-6.52 -6.62,-6.52 -1.95,0 -2.74,1.59 -2.74,3.29 0,1.09 0.29,2.19 0.85,4.38 z"
           id="path5049" /><path
           style="fill:#000000;stroke-width:0"
           inkscape:connector-curvature="0"
           d="m 533.97,422.64 -0.01,0.1 0,0.1 0,0.09 -0.01,0.09 -0.01,0.09 -0.01,0.08 -0.01,0.08 -0.01,0.08 -0.01,0.07 -0.02,0.07 -0.01,0.07 -0.02,0.06 -0.02,0.06 -0.02,0.06 -0.02,0.05 -0.02,0.05 -0.03,0.05 -0.02,0.05 -0.03,0.04 -0.03,0.04 -0.02,0.03 -0.03,0.03 -0.03,0.03 -0.03,0.03 -0.04,0.02 -0.03,0.02 -0.03,0.01 -0.04,0.02 -0.03,0.01 -0.04,0 -0.03,0.01 -0.04,0 c -0.25,0 -0.65,-0.35 -0.7,-1.29 -0.2,-4.78 -3.49,-7.53 -6.97,-7.53 -3.14,0 -5.53,2.14 -7.98,4.29 -2.53,2.29 -5.12,4.58 -8.51,4.58 -5.43,0 -8.37,-5.48 -8.37,-10.01 0,-1.59 0.65,-1.59 0.7,-1.59 0.54,0 0.69,0.99 0.69,1.14 0.2,5.48 3.94,7.67 6.98,7.67 3.14,0 5.53,-2.14 7.97,-4.28 2.54,-2.29 5.13,-4.59 8.52,-4.59 5.43,0 8.37,5.49 8.37,10.02 z"
           id="path5051" /><path
           style="fill:#000000;stroke-width:0"
           inkscape:connector-curvature="0"
           d="m 565.09,421.74 0.2,1.3 3.39,13.55 c 0.45,1.74 0.55,1.89 2.69,1.89 l 4.78,0 c 4.13,0 6.78,-1.35 6.78,-4.78 0,-1.95 -1,-6.23 -2.94,-8.02 -2.49,-2.25 -5.48,-2.64 -7.67,-2.64 l -7.03,0 -0.2,-1.3 8.47,0 c 7.08,0 14,5.18 14,10.76 0,3.84 -3.29,7.52 -9.81,7.52 l -16.15,0 c -0.94,0 -1.49,0 -1.49,-0.95 0,-0.59 0.45,-0.59 1.45,-0.59 0.64,0 1.54,-0.05 2.14,-0.1 0.8,-0.1 1.09,-0.25 1.09,-0.8 0,-0.2 -0.04,-0.35 -0.2,-0.94 l -6.67,-26.75 c -0.5,-1.95 -0.6,-2.35 -4.53,-2.35 -0.85,0 -1.4,0 -1.4,-0.94 0,-0.6 0.6,-0.6 0.75,-0.6 l 12.75,0 c 0.35,0 1,0 1,1 0,0.54 -0.45,0.54 -1.4,0.54 -1.84,0 -3.24,0 -3.24,0.9 0,0.3 0.11,0.55 0.15,0.85 z"
           id="path5053" /><path
           style="fill:#000000;stroke-width:0"
           inkscape:connector-curvature="0"
           d="m 606.76,423.06 0,0.02 0,0.01 0,0.02 -0.01,0.02 0,0.02 0,0.02 -0.01,0.01 0,0.02 -0.01,0.02 -0.01,0.02 -0.01,0.02 0,0.02 -0.01,0.02 -0.01,0.02 -0.02,0.01 -0.01,0.02 -0.01,0.02 -0.02,0.01 -0.01,0.02 -0.02,0.01 -0.02,0.02 -0.02,0.01 -0.02,0.01 -0.02,0.02 -0.02,0.01 -0.02,0.01 -0.03,0 -0.03,0.01 -0.01,0 -0.01,0 -0.02,0.01 -0.01,0 -0.02,0 -0.01,0 -0.02,0 -0.02,0 c -0.21,0 -0.24,-0.03 -0.7,-0.49 l -1.7,-1.98 c -1.33,1.85 -3.52,2.47 -5.65,2.47 -4.92,0 -9.28,-3.97 -9.28,-7.98 0,-0.53 0.11,-1.92 1.15,-3.21 1.19,-1.39 2.48,-1.71 4.85,-2.27 0.7,-0.17 2.44,-0.55 2.96,-0.69 1.12,-0.28 3.25,-1.05 3.25,-3.66 0,-2.83 -2.96,-6.14 -6.94,-6.14 -3.07,0 -6.77,1.08 -6.77,4.95 0,0.35 0.07,1.11 0.21,1.74 0.04,0.14 0.04,0.18 0.04,0.21 0,0.45 -0.42,0.45 -0.56,0.45 -0.49,0 -0.52,-0.07 -0.66,-0.69 l -1.78,-6.98 c -0.04,-0.13 -0.11,-0.35 -0.11,-0.52 0,-0.21 0.14,-0.42 0.49,-0.42 0.21,0 0.25,0.04 0.7,0.49 0.38,0.42 1.29,1.53 1.67,1.95 1.85,-2.02 4.57,-2.44 6.66,-2.44 5.27,0 9.52,4.54 9.52,8.65 0,1.53 -0.62,2.93 -1.39,3.73 -1.22,1.26 -1.74,1.39 -6.24,2.44 -0.74,0.18 -1.89,0.45 -2.2,0.56 -0.87,0.31 -2.34,1.19 -2.34,3.17 0,2.76 3.11,5.55 6.74,5.55 3.76,0 5.57,-2.13 5.57,-5.44 0,-0.46 -0.14,-1.26 -0.14,-1.57 0,-0.49 0.42,-0.49 0.6,-0.49 0.52,0 0.55,0.17 0.7,0.77 z"
           id="path5055" /></g>    </g>
    <g
       id="g5263"
       transform="translate(-183.36858,120.72001)">
      <g
         word-spacing="normal"
         letter-spacing="normal"
         font-size-adjust="none"
         font-stretch="normal"
         font-weight="normal"
         font-variant="normal"
         font-style="normal"
         stroke-miterlimit="10.433"
         xml:space="preserve"
         transform="matrix(0.28571429,0,0,-0.28571429,-50,225)"
         id="g5265"
         style="font-style:normal;font-variant:normal;font-weight:normal;font-stretch:normal;letter-spacing:normal;word-spacing:normal;text-anchor:start;fill:none;fill-opacity:1;fill-rule:evenodd;stroke:#000000;stroke-linecap:butt;stroke-linejoin:miter;stroke-miterlimit:10.43299961;stroke-dasharray:none;stroke-dashoffset:0;stroke-opacity:1"><path
           id="path5267"
           d="m 462.62,410.13 0.25,0.27 0.25,0.26 0.23,0.24 0.23,0.24 0.22,0.23 0.22,0.23 0.21,0.21 0.2,0.21 0.2,0.2 0.2,0.2 0.19,0.19 0.19,0.18 0.18,0.18 0.18,0.18 0.36,0.33 0.34,0.32 0.33,0.3 0.33,0.29 0.32,0.29 0.64,0.56 0.33,0.29 0.33,0.28 c 0,0.05 3.09,2.69 4.88,4.49 4.74,4.63 5.83,7.02 5.83,7.22 0,0.5 -0.45,0.5 -0.55,0.5 -0.34,0 -0.5,-0.1 -0.74,-0.55 -1.5,-2.39 -2.54,-3.19 -3.74,-3.19 -1.19,0 -1.79,0.75 -2.54,1.6 -0.94,1.14 -1.79,2.14 -3.44,2.14 -3.73,0 -6.02,-4.64 -6.02,-5.68 0,-0.25 0.15,-0.55 0.59,-0.55 0.45,0 0.55,0.25 0.65,0.55 0.95,2.29 3.84,2.34 4.24,2.34 1.04,0 1.99,-0.35 3.13,-0.75 2,-0.75 2.55,-0.75 3.84,-0.75 -1.79,-2.14 -5.98,-5.72 -6.92,-6.52 l -4.49,-4.18 c -3.38,-3.34 -5.13,-6.18 -5.13,-6.53 0,-0.5 0.5,-0.5 0.6,-0.5 0.4,0 0.5,0.1 0.8,0.65 1.14,1.74 2.64,3.09 4.23,3.09 1.15,0 1.64,-0.45 2.89,-1.89 0.85,-1.05 1.74,-1.85 3.19,-1.85 4.93,0 7.82,6.33 7.82,7.67 0,0.25 -0.2,0.5 -0.6,0.5 -0.45,0 -0.55,-0.3 -0.69,-0.65 -1.15,-3.24 -4.34,-4.18 -5.99,-4.18 -0.99,0 -1.89,0.3 -2.93,0.65 -1.7,0.65 -2.44,0.85 -3.49,0.85 -0.1,0 -0.9,0 -1.35,-0.16 z"
           inkscape:connector-curvature="0"
           style="fill:#000000;stroke-width:0" /><path
           id="path5269"
           d="m 530.97,422.64 -0.01,0.1 0,0.1 0,0.09 -0.01,0.09 -0.01,0.09 -0.01,0.08 -0.01,0.08 -0.01,0.08 -0.01,0.07 -0.02,0.07 -0.01,0.07 -0.02,0.06 -0.02,0.06 -0.02,0.06 -0.02,0.05 -0.02,0.05 -0.03,0.05 -0.02,0.05 -0.03,0.04 -0.03,0.04 -0.02,0.03 -0.03,0.03 -0.03,0.03 -0.03,0.03 -0.04,0.02 -0.03,0.02 -0.03,0.01 -0.04,0.02 -0.03,0.01 -0.04,0 -0.03,0.01 -0.04,0 c -0.25,0 -0.65,-0.35 -0.7,-1.29 -0.2,-4.78 -3.49,-7.53 -6.97,-7.53 -3.14,0 -5.53,2.14 -7.98,4.29 -2.53,2.29 -5.12,4.58 -8.51,4.58 -5.43,0 -8.37,-5.48 -8.37,-10.01 0,-1.59 0.65,-1.59 0.7,-1.59 0.54,0 0.69,0.99 0.69,1.14 0.2,5.48 3.94,7.67 6.98,7.67 3.14,0 5.53,-2.14 7.97,-4.28 2.54,-2.29 5.13,-4.59 8.52,-4.59 5.43,0 8.37,5.49 8.37,10.02 z"
           inkscape:connector-curvature="0"
           style="fill:#000000;stroke-width:0" /><path
           id="path5271"
           d="m 562.09,421.74 0.2,1.3 3.39,13.55 c 0.45,1.74 0.55,1.89 2.69,1.89 l 4.78,0 c 4.13,0 6.78,-1.35 6.78,-4.78 0,-1.95 -1,-6.23 -2.94,-8.02 -2.49,-2.25 -5.48,-2.64 -7.67,-2.64 l -7.03,0 -0.2,-1.3 8.47,0 c 7.08,0 14,5.18 14,10.76 0,3.84 -3.29,7.52 -9.81,7.52 l -16.15,0 c -0.94,0 -1.49,0 -1.49,-0.95 0,-0.59 0.45,-0.59 1.45,-0.59 0.64,0 1.54,-0.05 2.14,-0.1 0.8,-0.1 1.09,-0.25 1.09,-0.8 0,-0.2 -0.04,-0.35 -0.2,-0.94 l -6.67,-26.75 c -0.5,-1.95 -0.6,-2.35 -4.53,-2.35 -0.85,0 -1.4,0 -1.4,-0.94 0,-0.6 0.6,-0.6 0.75,-0.6 l 12.75,0 c 0.35,0 1,0 1,1 0,0.54 -0.45,0.54 -1.4,0.54 -1.84,0 -3.24,0 -3.24,0.9 0,0.3 0.11,0.55 0.15,0.85 z"
           inkscape:connector-curvature="0"
           style="fill:#000000;stroke-width:0" /><path
           id="path5273"
           d="m 606.3,421.46 0.05,0.05 0.05,0.05 0.05,0.05 0.05,0.05 0.04,0.05 0.04,0.06 0.02,0.03 0.02,0.02 0.01,0.03 0.02,0.03 0.02,0.03 0.01,0.03 0.02,0.03 0.01,0.03 0.01,0.03 0.01,0.03 0.01,0.03 0.01,0.04 0.01,0.03 0.01,0.04 0,0.04 0.01,0.03 0,0.04 0.01,0.04 0,0.04 0,0.04 c 0,0.39 -0.28,0.39 -0.94,0.39 l -16.28,0 c -0.91,0 -0.95,-0.04 -1.16,-0.7 l -1.95,-6.28 c -0.14,-0.42 -0.14,-0.45 -0.14,-0.55 0,-0.18 0.14,-0.49 0.59,-0.49 0.46,0 0.53,0.2 0.63,0.56 1.68,4.91 4.4,6.2 8.89,6.2 l 6.28,0 -20.33,-21.02 c -0.24,-0.25 -0.59,-0.6 -0.59,-1.16 0,-0.38 0.31,-0.38 0.94,-0.38 l 16.88,0 c 0.91,0 0.94,0.04 1.15,0.7 l 2.51,7.77 c 0.14,0.46 0.14,0.53 0.14,0.56 0,0.04 0,0.49 -0.56,0.49 -0.45,0 -0.52,-0.14 -0.77,-0.91 -1.6,-4.77 -3.38,-7.22 -9.45,-7.22 l -6.66,0 z"
           inkscape:connector-curvature="0"
           style="fill:#000000;stroke-width:0" /></g>    </g>
    <g
       transform="matrix(1.751464,0,0,1.6996886,-68.487758,-127.32265)"
       id="g3704">
      <g
         style="font-style:normal;font-variant:normal;font-weight:normal;font-stretch:normal;letter-spacing:normal;word-spacing:normal;text-anchor:start;fill:none;fill-opacity:1;fill-rule:evenodd;stroke:#000000;stroke-linecap:butt;stroke-linejoin:miter;stroke-miterlimit:10.43299961;stroke-dasharray:none;stroke-dashoffset:0;stroke-opacity:1"
         id="g3706"
         transform="matrix(0.18571429,0,0,-0.18571429,-32.5,225)"
         xml:space="preserve"
         stroke-miterlimit="10.433"
         font-style="normal"
         font-variant="normal"
         font-weight="normal"
         font-stretch="normal"
         font-size-adjust="none"
         letter-spacing="normal"
         word-spacing="normal"><path
           style="fill:#000000;stroke-width:0"
           inkscape:connector-curvature="0"
           d="m 472.64,421.04 0.03,0.13 0.03,0.15 0.05,0.17 0.04,0.18 0.06,0.19 0.06,0.21 0.06,0.21 0.07,0.23 0.08,0.23 0.09,0.24 0.1,0.25 0.1,0.24 0.11,0.25 0.12,0.25 0.13,0.25 0.14,0.25 0.15,0.24 0.15,0.24 0.17,0.23 0.18,0.22 0.18,0.22 0.2,0.2 0.21,0.19 0.22,0.18 0.23,0.16 0.25,0.14 0.12,0.07 0.13,0.06 0.13,0.05 0.14,0.05 0.14,0.05 0.14,0.04 0.14,0.03 0.15,0.03 0.15,0.02 0.16,0.02 0.16,0.01 0.16,0 c 0.25,0 1.45,0 2.49,-0.65 -1.4,-0.25 -2.39,-1.49 -2.39,-2.68 0,-0.8 0.54,-1.75 1.89,-1.75 1.1,0 2.69,0.9 2.69,2.89 0,2.59 -2.94,3.29 -4.63,3.29 -2.89,0 -4.64,-2.64 -5.23,-3.79 -1.25,3.29 -3.94,3.79 -5.38,3.79 -5.18,0 -8.02,-6.43 -8.02,-7.67 0,-0.5 0.5,-0.5 0.6,-0.5 0.39,0 0.54,0.1 0.64,0.54 1.7,5.29 4.98,6.53 6.68,6.53 0.95,0 2.69,-0.45 2.69,-3.33 0,-1.55 -0.85,-4.89 -2.69,-11.86 -0.8,-3.09 -2.54,-5.18 -4.73,-5.18 -0.3,0 -1.45,0 -2.49,0.65 1.24,0.25 2.34,1.29 2.34,2.69 0,1.34 -1.1,1.74 -1.85,1.74 -1.49,0 -2.73,-1.3 -2.73,-2.89 0,-2.29 2.48,-3.29 4.68,-3.29 3.28,0 5.08,3.49 5.23,3.79 0.6,-1.85 2.39,-3.79 5.38,-3.79 5.13,0 7.97,6.43 7.97,7.67 0,0.5 -0.45,0.5 -0.6,0.5 -0.45,0 -0.55,-0.2 -0.65,-0.55 -1.64,-5.33 -5.03,-6.52 -6.62,-6.52 -1.95,0 -2.74,1.59 -2.74,3.29 0,1.09 0.29,2.19 0.85,4.38 z"
           id="path3708" /><path
           style="fill:#000000;stroke-width:0"
           inkscape:connector-curvature="0"
           d="m 533.97,422.64 -0.01,0.1 0,0.1 0,0.09 -0.01,0.09 -0.01,0.09 -0.01,0.08 -0.01,0.08 -0.01,0.08 -0.01,0.07 -0.02,0.07 -0.01,0.07 -0.02,0.06 -0.02,0.06 -0.02,0.06 -0.02,0.05 -0.02,0.05 -0.03,0.05 -0.02,0.05 -0.03,0.04 -0.03,0.04 -0.02,0.03 -0.03,0.03 -0.03,0.03 -0.03,0.03 -0.04,0.02 -0.03,0.02 -0.03,0.01 -0.04,0.02 -0.03,0.01 -0.04,0 -0.03,0.01 -0.04,0 c -0.25,0 -0.65,-0.35 -0.7,-1.29 -0.2,-4.78 -3.49,-7.53 -6.97,-7.53 -3.14,0 -5.53,2.14 -7.98,4.29 -2.53,2.29 -5.12,4.58 -8.51,4.58 -5.43,0 -8.37,-5.48 -8.37,-10.01 0,-1.59 0.65,-1.59 0.7,-1.59 0.54,0 0.69,0.99 0.69,1.14 0.2,5.48 3.94,7.67 6.98,7.67 3.14,0 5.53,-2.14 7.97,-4.28 2.54,-2.29 5.13,-4.59 8.52,-4.59 5.43,0 8.37,5.49 8.37,10.02 z"
           id="path3710" /><path
           style="fill:#000000;stroke-width:0"
           inkscape:connector-curvature="0"
           d="m 552.24,399.92 -0.03,-0.15 -0.04,-0.15 -0.03,-0.14 -0.04,-0.13 -0.03,-0.13 -0.04,-0.11 -0.03,-0.12 -0.04,-0.1 -0.04,-0.1 -0.04,-0.09 -0.04,-0.09 -0.05,-0.08 -0.05,-0.07 -0.05,-0.07 -0.06,-0.07 -0.06,-0.05 -0.07,-0.06 -0.07,-0.05 -0.08,-0.04 -0.09,-0.04 -0.09,-0.04 -0.1,-0.03 -0.11,-0.03 -0.12,-0.02 -0.13,-0.02 -0.13,-0.02 -0.07,0 -0.08,-0.01 -0.07,-0.01 -0.08,0 -0.08,-0.01 -0.09,0 -0.08,0 -0.09,-0.01 -0.09,0 -0.1,0 -0.1,0 -0.1,0 c -0.6,0 -1.14,0 -1.14,-0.95 0,-0.39 0.25,-0.59 0.64,-0.59 l 9.12,0 c 0.25,0 0.9,0 0.9,0.99 0,0.55 -0.5,0.55 -1.2,0.55 -2.49,0 -2.49,0.35 -2.49,0.8 0,0.59 2.09,8.71 2.44,9.96 0.65,-1.44 2.04,-3.19 4.58,-3.19 l -0.05,1.1 c -3.28,0 -3.93,4.13 -3.93,4.43 0,0.1 0,0.2 0.15,0.8 l 2.44,9.76 c 0.34,1.35 1.69,2.74 2.59,3.49 1.74,1.54 3.18,1.89 4.03,1.89 1.99,0 3.19,-1.74 3.19,-4.68 0,-2.94 -1.64,-8.67 -2.54,-10.56 -1.69,-3.49 -4.08,-5.13 -5.93,-5.13 l 0.05,-1.1 c 5.78,0 12.01,7.28 12.01,14.6 0,4.68 -2.84,7.97 -6.63,7.97 -2.49,0 -4.88,-1.8 -6.52,-3.74 -0.5,2.69 -2.64,3.74 -4.49,3.74 -2.29,0 -3.24,-1.95 -3.68,-2.84 -0.9,-1.7 -1.55,-4.68 -1.55,-4.83 0,-0.5 0.5,-0.5 0.6,-0.5 0.5,0 0.55,0.05 0.85,1.14 0.85,3.54 1.84,5.93 3.63,5.93 0.85,0 1.55,-0.4 1.55,-2.29 0,-1.15 -0.15,-1.69 -0.35,-2.54 z"
           id="path3712" /><path
           style="fill:#000000;stroke-width:0"
           inkscape:connector-curvature="0"
           d="m 600.76,423.06 0,0.02 0,0.01 0,0.02 -0.01,0.02 0,0.02 0,0.02 -0.01,0.01 0,0.02 -0.01,0.02 -0.01,0.02 -0.01,0.02 0,0.02 -0.01,0.02 -0.01,0.02 -0.02,0.01 -0.01,0.02 -0.01,0.02 -0.02,0.01 -0.01,0.02 -0.02,0.01 -0.02,0.02 -0.02,0.01 -0.02,0.01 -0.02,0.02 -0.02,0.01 -0.02,0.01 -0.03,0 -0.03,0.01 -0.01,0 -0.01,0 -0.02,0.01 -0.01,0 -0.02,0 -0.01,0 -0.02,0 -0.02,0 c -0.21,0 -0.24,-0.03 -0.7,-0.49 l -1.7,-1.98 c -1.33,1.85 -3.52,2.47 -5.65,2.47 -4.92,0 -9.28,-3.97 -9.28,-7.98 0,-0.53 0.11,-1.92 1.15,-3.21 1.19,-1.39 2.48,-1.71 4.85,-2.27 0.7,-0.17 2.44,-0.55 2.96,-0.69 1.12,-0.28 3.25,-1.05 3.25,-3.66 0,-2.83 -2.96,-6.14 -6.94,-6.14 -3.07,0 -6.77,1.08 -6.77,4.95 0,0.35 0.07,1.11 0.21,1.74 0.04,0.14 0.04,0.18 0.04,0.21 0,0.45 -0.42,0.45 -0.56,0.45 -0.49,0 -0.52,-0.07 -0.66,-0.69 l -1.78,-6.98 c -0.04,-0.13 -0.11,-0.35 -0.11,-0.52 0,-0.21 0.14,-0.42 0.49,-0.42 0.21,0 0.25,0.04 0.7,0.49 0.38,0.42 1.29,1.53 1.67,1.95 1.85,-2.02 4.57,-2.44 6.66,-2.44 5.27,0 9.52,4.54 9.52,8.65 0,1.53 -0.62,2.93 -1.39,3.73 -1.22,1.26 -1.74,1.39 -6.24,2.44 -0.74,0.18 -1.89,0.45 -2.2,0.56 -0.87,0.31 -2.34,1.19 -2.34,3.17 0,2.76 3.11,5.55 6.74,5.55 3.76,0 5.57,-2.13 5.57,-5.44 0,-0.46 -0.14,-1.26 -0.14,-1.57 0,-0.49 0.42,-0.49 0.6,-0.49 0.52,0 0.55,0.17 0.7,0.77 z"
           id="path3714" /></g>    </g>
    <g
       id="g3946"
       transform="matrix(1.7602703,0,0,1.6996871,-68.86697,-67.32243)">
      <g
         word-spacing="normal"
         letter-spacing="normal"
         font-size-adjust="none"
         font-stretch="normal"
         font-weight="normal"
         font-variant="normal"
         font-style="normal"
         stroke-miterlimit="10.433"
         xml:space="preserve"
         transform="matrix(0.18571429,0,0,-0.18571429,-32.5,225)"
         id="g3948"
         style="font-style:normal;font-variant:normal;font-weight:normal;font-stretch:normal;letter-spacing:normal;word-spacing:normal;text-anchor:start;fill:none;fill-opacity:1;fill-rule:evenodd;stroke:#000000;stroke-linecap:butt;stroke-linejoin:miter;stroke-miterlimit:10.43299961;stroke-dasharray:none;stroke-dashoffset:0;stroke-opacity:1"><path
           id="path3950"
           d="m 462.62,410.13 0.25,0.27 0.25,0.26 0.23,0.24 0.23,0.24 0.22,0.23 0.22,0.23 0.21,0.21 0.2,0.21 0.2,0.2 0.2,0.2 0.19,0.19 0.19,0.18 0.18,0.18 0.18,0.18 0.36,0.33 0.34,0.32 0.33,0.3 0.33,0.29 0.32,0.29 0.64,0.56 0.33,0.29 0.33,0.28 c 0,0.05 3.09,2.69 4.88,4.49 4.74,4.63 5.83,7.02 5.83,7.22 0,0.5 -0.45,0.5 -0.55,0.5 -0.34,0 -0.5,-0.1 -0.74,-0.55 -1.5,-2.39 -2.54,-3.19 -3.74,-3.19 -1.19,0 -1.79,0.75 -2.54,1.6 -0.94,1.14 -1.79,2.14 -3.44,2.14 -3.73,0 -6.02,-4.64 -6.02,-5.68 0,-0.25 0.15,-0.55 0.59,-0.55 0.45,0 0.55,0.25 0.65,0.55 0.95,2.29 3.84,2.34 4.24,2.34 1.04,0 1.99,-0.35 3.13,-0.75 2,-0.75 2.55,-0.75 3.84,-0.75 -1.79,-2.14 -5.98,-5.72 -6.92,-6.52 l -4.49,-4.18 c -3.38,-3.34 -5.13,-6.18 -5.13,-6.53 0,-0.5 0.5,-0.5 0.6,-0.5 0.4,0 0.5,0.1 0.8,0.65 1.14,1.74 2.64,3.09 4.23,3.09 1.15,0 1.64,-0.45 2.89,-1.89 0.85,-1.05 1.74,-1.85 3.19,-1.85 4.93,0 7.82,6.33 7.82,7.67 0,0.25 -0.2,0.5 -0.6,0.5 -0.45,0 -0.55,-0.3 -0.69,-0.65 -1.15,-3.24 -4.34,-4.18 -5.99,-4.18 -0.99,0 -1.89,0.3 -2.93,0.65 -1.7,0.65 -2.44,0.85 -3.49,0.85 -0.1,0 -0.9,0 -1.35,-0.16 z"
           inkscape:connector-curvature="0"
           style="fill:#000000;stroke-width:0" /><path
           id="path3952"
           d="m 530.97,422.64 -0.01,0.1 0,0.1 0,0.09 -0.01,0.09 -0.01,0.09 -0.01,0.08 -0.01,0.08 -0.01,0.08 -0.01,0.07 -0.02,0.07 -0.01,0.07 -0.02,0.06 -0.02,0.06 -0.02,0.06 -0.02,0.05 -0.02,0.05 -0.03,0.05 -0.02,0.05 -0.03,0.04 -0.03,0.04 -0.02,0.03 -0.03,0.03 -0.03,0.03 -0.03,0.03 -0.04,0.02 -0.03,0.02 -0.03,0.01 -0.04,0.02 -0.03,0.01 -0.04,0 -0.03,0.01 -0.04,0 c -0.25,0 -0.65,-0.35 -0.7,-1.29 -0.2,-4.78 -3.49,-7.53 -6.97,-7.53 -3.14,0 -5.53,2.14 -7.98,4.29 -2.53,2.29 -5.12,4.58 -8.51,4.58 -5.43,0 -8.37,-5.48 -8.37,-10.01 0,-1.59 0.65,-1.59 0.7,-1.59 0.54,0 0.69,0.99 0.69,1.14 0.2,5.48 3.94,7.67 6.98,7.67 3.14,0 5.53,-2.14 7.97,-4.28 2.54,-2.29 5.13,-4.59 8.52,-4.59 5.43,0 8.37,5.49 8.37,10.02 z"
           inkscape:connector-curvature="0"
           style="fill:#000000;stroke-width:0" /><path
           id="path3954"
           d="m 549.24,399.92 -0.03,-0.15 -0.04,-0.15 -0.03,-0.14 -0.04,-0.13 -0.03,-0.13 -0.04,-0.11 -0.03,-0.12 -0.04,-0.1 -0.04,-0.1 -0.04,-0.09 -0.04,-0.09 -0.05,-0.08 -0.05,-0.07 -0.05,-0.07 -0.06,-0.07 -0.06,-0.05 -0.07,-0.06 -0.07,-0.05 -0.08,-0.04 -0.09,-0.04 -0.09,-0.04 -0.1,-0.03 -0.11,-0.03 -0.12,-0.02 -0.13,-0.02 -0.13,-0.02 -0.07,0 -0.08,-0.01 -0.07,-0.01 -0.08,0 -0.08,-0.01 -0.09,0 -0.08,0 -0.09,-0.01 -0.09,0 -0.1,0 -0.1,0 -0.1,0 c -0.6,0 -1.14,0 -1.14,-0.95 0,-0.39 0.25,-0.59 0.64,-0.59 l 9.12,0 c 0.25,0 0.9,0 0.9,0.99 0,0.55 -0.5,0.55 -1.2,0.55 -2.49,0 -2.49,0.35 -2.49,0.8 0,0.59 2.09,8.71 2.44,9.96 0.65,-1.44 2.04,-3.19 4.58,-3.19 l -0.05,1.1 c -3.28,0 -3.93,4.13 -3.93,4.43 0,0.1 0,0.2 0.15,0.8 l 2.44,9.76 c 0.34,1.35 1.69,2.74 2.59,3.49 1.74,1.54 3.18,1.89 4.03,1.89 1.99,0 3.19,-1.74 3.19,-4.68 0,-2.94 -1.64,-8.67 -2.54,-10.56 -1.69,-3.49 -4.08,-5.13 -5.93,-5.13 l 0.05,-1.1 c 5.78,0 12.01,7.28 12.01,14.6 0,4.68 -2.84,7.97 -6.63,7.97 -2.49,0 -4.88,-1.8 -6.52,-3.74 -0.5,2.69 -2.64,3.74 -4.49,3.74 -2.29,0 -3.24,-1.95 -3.68,-2.84 -0.9,-1.7 -1.55,-4.68 -1.55,-4.83 0,-0.5 0.5,-0.5 0.6,-0.5 0.5,0 0.55,0.05 0.85,1.14 0.85,3.54 1.84,5.93 3.63,5.93 0.85,0 1.55,-0.4 1.55,-2.29 0,-1.15 -0.15,-1.69 -0.35,-2.54 z"
           inkscape:connector-curvature="0"
           style="fill:#000000;stroke-width:0" /><path
           id="path3956"
           d="m 599.3,421.46 0.05,0.05 0.05,0.05 0.05,0.05 0.05,0.05 0.04,0.05 0.04,0.06 0.02,0.03 0.02,0.02 0.01,0.03 0.02,0.03 0.02,0.03 0.01,0.03 0.02,0.03 0.01,0.03 0.01,0.03 0.01,0.03 0.01,0.03 0.01,0.04 0.01,0.03 0.01,0.04 0,0.04 0.01,0.03 0,0.04 0.01,0.04 0,0.04 0,0.04 c 0,0.39 -0.28,0.39 -0.94,0.39 l -16.28,0 c -0.91,0 -0.95,-0.04 -1.16,-0.7 l -1.95,-6.28 c -0.14,-0.42 -0.14,-0.45 -0.14,-0.55 0,-0.18 0.14,-0.49 0.59,-0.49 0.46,0 0.53,0.2 0.63,0.56 1.68,4.91 4.4,6.2 8.89,6.2 l 6.28,0 -20.33,-21.02 c -0.24,-0.25 -0.59,-0.6 -0.59,-1.16 0,-0.38 0.31,-0.38 0.94,-0.38 l 16.88,0 c 0.91,0 0.94,0.04 1.15,0.7 l 2.51,7.77 c 0.14,0.46 0.14,0.53 0.14,0.56 0,0.04 0,0.49 -0.56,0.49 -0.45,0 -0.52,-0.14 -0.77,-0.91 -1.6,-4.77 -3.38,-7.22 -9.45,-7.22 l -6.66,0 z"
           inkscape:connector-curvature="0"
           style="fill:#000000;stroke-width:0" /></g>    </g>
  </g>
</svg>
